<svg width="45" height="31" viewBox="0 0 45 31" version="1.1" xmlns="http://www.w3.org/2000/svg" xmlns:xlink="http://www.w3.org/1999/xlink">
<title>Vector</title>
<desc>Created using Figma</desc>
<g id="Canvas" transform="translate(-2043 -1213)">
<g id="Vector">
<use xlink:href="#path0_fill" transform="translate(2043.53 1213.07)" fill="#0059A9"/>
</g>
</g>
<defs>
<path id="path0_fill" d="M 29.5474 0.461008C 28.9497 -0.153669 27.9548 -0.153669 27.3361 0.461008C 26.7383 1.05492 26.7383 2.04339 27.3361 2.63592L 38.5489 13.7763L 1.54809 13.7763C 0.685562 13.7776 0 14.4588 0 15.3157C 0 16.1727 0.685562 16.876 1.54809 16.876L 38.5489 16.876L 27.3361 27.9955C 26.7383 28.6102 26.7383 29.6001 27.3361 30.1926C 27.9548 30.8073 28.9511 30.8073 29.5474 30.1926L 43.4147 16.4149C 44.0334 15.821 44.0334 14.8326 43.4147 14.24L 29.5474 0.461008Z"/>
</defs>
</svg>
