<svg xmlns="http://www.w3.org/2000/svg" viewBox="0 0 54 56.65"><defs><style>.cls-1{fill:#004172;}.cls-2{fill:#0157a5;}.cls-3{fill:#fb0;}.cls-4{fill:#fff;}.cls-5{fill:#f8ab49;}</style></defs><title>avia</title><g id="Слой_2" data-name="Слой 2"><g id="Layer_1" data-name="Layer 1"><g id="filled-line-78"><path class="cls-1" d="M49.45,26.6,34.09,11.24H22.5L13,46.66a3,3,0,0,0,2.12,3.67l23.18,6.21A3,3,0,0,0,42,54.42Z"/><path class="cls-1" d="M19.74,21.54l29,7.76L53.9,10a3,3,0,0,0-2.12-3.67L28.59.1a3,3,0,0,0-3.67,2.12Z"/><path class="cls-2" d="M1,52.77a1,1,0,0,1-1-1v-40a1,1,0,0,1,1-1H31a3,3,0,0,1,3,3v36a3,3,0,0,1-3,3Z"/><path class="cls-3" d="M17,15.77a12,12,0,1,0,12,12A12,12,0,0,0,17,15.77Zm8.88,7.5H21.56a19.44,19.44,0,0,0-1.72-5A10,10,0,0,1,25.88,23.27ZM20,27.77a21.06,21.06,0,0,1-.16,2.5H14.16a21.06,21.06,0,0,1-.16-2.5,21.5,21.5,0,0,1,.16-2.5h5.69A21.5,21.5,0,0,1,20,27.77Zm-5.51-4.5a16.59,16.59,0,0,1,2.22-5.47l.29,0c.1,0,.19,0,.29,0a16.63,16.63,0,0,1,2.22,5.47Zm-.33-5a19.5,19.5,0,0,0-1.72,5H8.12A10,10,0,0,1,14.16,18.23Zm-6.81,7h4.79a21.84,21.84,0,0,0,0,5H7.36a9,9,0,0,1,0-5Zm.76,7h4.33a19.84,19.84,0,0,0,1.71,5A10,10,0,0,1,8.12,32.27Zm8.59,5.47a16.74,16.74,0,0,1-2.22-5.47h5a16.73,16.73,0,0,1-2.22,5.47c-.1,0-.19,0-.29,0S16.81,37.74,16.71,37.74Zm3.13-.43a19.79,19.79,0,0,0,1.71-5h4.33A10,10,0,0,1,19.84,37.31Zm6.8-7H21.86a23.46,23.46,0,0,0,.14-2.5,24,24,0,0,0-.14-2.5h4.79a9,9,0,0,1,0,5Z"/><rect class="cls-4" x="7" y="45.77" width="20" height="2"/><path class="cls-5" d="M52.93,9.73,41,54.16a2,2,0,0,1-1.93,1.48,2,2,0,0,1-.52-.07l-7-1.87A4,4,0,0,0,35,49.77V33.91l1,.28,1-3.86-1.93-.52-.13.48V14.39l2,.55,2.37,7.73,1.66.44L40.9,16l2.93.78L45.12,19l1.1.3L46,16.16l1.74-2.64-1.1-.3-2.25,1.32-2.93-.78L45.2,7.66l-1.66-.44-5.92,5.51-3.12-.84A4,4,0,0,0,31,9.77H23.93l2-7.29a2,2,0,0,1,2.45-1.41L51.52,7.28a2,2,0,0,1,1.41,2.45Z"/></g></g></g></svg>