<svg xmlns="http://www.w3.org/2000/svg" viewBox="0 0 69.77 47.51"><defs><style>.cls-1{fill:#0157a5;}.cls-2{fill:#004172;}.cls-3{fill:#ebf0f3;}.cls-4{fill:#3a556a;}.cls-5{fill:#44c4a1;}.cls-6{fill:#fff;}.cls-7{fill:#fcd462;}.cls-8{fill:#f6c358;}.cls-9{fill:#dc8744;}.cls-10{fill:#f8ab49;}.cls-11{fill:#ffc95c;}.cls-12{fill:#64798a;opacity:0.15;isolation:isolate;}</style></defs><title>batch</title><g id="Слой_2" data-name="Слой 2"><g id="Layer_1" data-name="Layer 1"><rect class="cls-1" y="43.17" width="69.77" height="3.29"/><polygon class="cls-2" points="69.55 46.47 0.23 46.47 6.12 47.51 63.66 47.51 69.55 46.47"/><path class="cls-2" d="M65.55,0H4.23A1.37,1.37,0,0,0,2.85,1.37v41.8H66.92V1.37A1.37,1.37,0,0,0,65.55,0Z"/><rect class="cls-3" x="5.39" y="2.54" width="58.99" height="38.1"/><circle class="cls-4" cx="34.89" cy="1.21" r="0.62"/><polygon class="cls-2" points="35.11 23.72 29.41 21.76 18.34 25.66 8.29 26.82 8.29 29.19 19.16 32.94 40.27 25.5 40.27 23.13 35.11 23.72"/><polygon class="cls-1" points="29.41 19.38 8.29 26.82 19.16 30.56 40.27 23.13 29.41 19.38"/><path class="cls-1" d="M17.73,29.53,11.26,27.3c.78-.27.77-.72,0-1L28,20.42a5,5,0,0,0,2.84,0l6.46,2.23c-.78.27-.77.72,0,1l-16.76,5.9A5,5,0,0,0,17.73,29.53Z"/><path class="cls-1" d="M27.18,24c2,.71,2.41,1.73.81,2.3a11.84,11.84,0,0,1-6.6-.26c-2-.71-2.41-1.73-.81-2.3A11.84,11.84,0,0,1,27.18,24Z"/><path class="cls-1" d="M33.14,21.85c.37.13.37.33,0,.46a2.33,2.33,0,0,1-1.32,0c-.37-.13-.37-.33,0-.46A2.34,2.34,0,0,1,33.14,21.85Z"/><path class="cls-1" d="M16.74,27.63c.37.12.37.33,0,.46a2.34,2.34,0,0,1-1.32,0c-.37-.13-.37-.33,0-.46A2.33,2.33,0,0,1,16.74,27.63Z"/><path class="cls-5" d="M27.11,26.05l-.53-.18a10.3,10.3,0,0,1-2.54.35l-.11-.4a8.67,8.67,0,0,0,1.86-.22l-1.4-.48a9.67,9.67,0,0,1-1.69.24,3.62,3.62,0,0,1-1.31-.19c-.42-.14-.61-.31-.59-.5s.25-.37.69-.55L21.14,24l.45-.16L22,24a9.1,9.1,0,0,1,2-.34l.2.39a7.65,7.65,0,0,0-1.44.21l1.35.47h0a9.76,9.76,0,0,1,1.73-.24,3.79,3.79,0,0,1,1.35.19c.42.15.61.32.58.51s-.28.38-.74.56l.52.18ZM22,24.63c0,.08.06.15.22.2a1.59,1.59,0,0,0,.52.08,5,5,0,0,0,.81-.1l-1.25-.43C22.08,24.47,22,24.55,22,24.63Zm4.66.56c0-.09-.05-.16-.22-.21a1.63,1.63,0,0,0-.56-.08A5.28,5.28,0,0,0,25,25l1.29.45C26.48,25.36,26.6,25.27,26.62,25.19Z"/><polygon class="cls-2" points="35.11 20.93 29.41 18.97 18.34 22.87 8.29 24.02 8.29 26.4 19.16 30.14 40.27 22.71 40.27 20.33 35.11 20.93"/><polygon class="cls-1" points="29.41 16.59 8.29 24.02 19.16 27.77 40.27 20.33 29.41 16.59"/><path class="cls-1" d="M17.73,26.74l-6.46-2.23c.78-.28.77-.72,0-1L28,17.62a5,5,0,0,0,2.84,0l6.46,2.23c-.78.27-.77.72,0,1l-16.76,5.9A5,5,0,0,0,17.73,26.74Z"/><path class="cls-1" d="M27.18,21.16c2,.7,2.41,1.73.81,2.3a11.86,11.86,0,0,1-6.6-.26c-2-.71-2.41-1.73-.81-2.3A11.81,11.81,0,0,1,27.18,21.16Z"/><path class="cls-1" d="M33.14,19.06c.37.12.37.33,0,.46a2.33,2.33,0,0,1-1.32,0c-.37-.13-.37-.33,0-.46A2.34,2.34,0,0,1,33.14,19.06Z"/><path class="cls-1" d="M16.74,24.84c.37.13.37.33,0,.46a2.31,2.31,0,0,1-1.32,0c-.37-.13-.37-.33,0-.46A2.32,2.32,0,0,1,16.74,24.84Z"/><path class="cls-5" d="M27.11,23.26l-.53-.18a10.14,10.14,0,0,1-2.54.35l-.11-.4a8.58,8.58,0,0,0,1.86-.22l-1.4-.48a9.69,9.69,0,0,1-1.69.24,3.58,3.58,0,0,1-1.31-.19c-.42-.14-.61-.31-.59-.5s.25-.37.69-.54l-.36-.12L21.6,21l.37.13a9.18,9.18,0,0,1,2-.34l.2.39a7.21,7.21,0,0,0-1.44.21l1.35.47h0a9.74,9.74,0,0,1,1.73-.24,3.77,3.77,0,0,1,1.35.19c.42.15.61.31.58.51s-.28.38-.74.56l.52.18ZM22,21.84c0,.08.06.15.22.2a1.54,1.54,0,0,0,.52.08,5.42,5.42,0,0,0,.81-.1l-1.25-.43C22.08,21.68,22,21.76,22,21.84Zm4.66.56c0-.09-.05-.16-.22-.21a1.58,1.58,0,0,0-.56-.08,5.22,5.22,0,0,0-.86.11l1.29.44C26.48,22.57,26.6,22.48,26.62,22.4Z"/><polygon class="cls-2" points="35.11 18.14 29.41 16.18 18.34 20.07 8.29 21.23 8.29 23.61 19.16 27.35 40.27 19.92 40.27 17.54 35.11 18.14"/><polygon class="cls-1" points="29.41 13.8 8.29 21.23 19.16 24.98 40.27 17.54 29.41 13.8"/><path class="cls-1" d="M17.73,23.95l-6.46-2.23c.78-.28.77-.72,0-1L28,14.83a5,5,0,0,0,2.84,0l6.46,2.23c-.78.27-.77.71,0,1l-16.76,5.9A5,5,0,0,0,17.73,23.95Z"/><path class="cls-1" d="M27.18,18.37c2,.71,2.41,1.73.81,2.3a11.84,11.84,0,0,1-6.6-.26c-2-.71-2.41-1.73-.81-2.3A11.86,11.86,0,0,1,27.18,18.37Z"/><path class="cls-1" d="M33.14,16.27c.37.13.37.33,0,.46a2.33,2.33,0,0,1-1.32,0c-.37-.13-.37-.33,0-.46A2.33,2.33,0,0,1,33.14,16.27Z"/><path class="cls-1" d="M16.74,22c.37.13.37.33,0,.46a2.34,2.34,0,0,1-1.32,0c-.37-.12-.37-.33,0-.46A2.32,2.32,0,0,1,16.74,22Z"/><path class="cls-5" d="M27.11,20.47l-.53-.18a10.22,10.22,0,0,1-2.54.35l-.11-.4A8.46,8.46,0,0,0,25.8,20l-1.4-.48a9.53,9.53,0,0,1-1.69.24,3.63,3.63,0,0,1-1.31-.19c-.42-.14-.61-.31-.59-.5s.25-.37.69-.54l-.36-.12.45-.16.37.13A9,9,0,0,1,24,18l.2.39a7.39,7.39,0,0,0-1.44.21l1.35.47h0a9.94,9.94,0,0,1,1.73-.24,3.78,3.78,0,0,1,1.35.2c.42.14.61.31.58.51s-.28.38-.74.56l.52.18ZM22,19c0,.08.06.15.22.2a1.58,1.58,0,0,0,.52.08,5.16,5.16,0,0,0,.81-.1l-1.25-.43C22.08,18.89,22,19,22,19Zm4.66.56c0-.09-.05-.16-.22-.21a1.62,1.62,0,0,0-.56-.08,5.17,5.17,0,0,0-.86.11l1.29.45C26.48,19.78,26.6,19.69,26.62,19.61Z"/><polygon class="cls-2" points="35.11 15.35 29.41 13.38 18.34 17.28 8.29 18.44 8.29 20.82 19.16 24.56 40.27 17.13 40.27 14.75 35.11 15.35"/><polygon class="cls-1" points="29.41 11.01 8.29 18.44 19.16 22.19 40.27 14.75 29.41 11.01"/><path class="cls-1" d="M17.73,21.16l-6.46-2.23c.78-.27.77-.72,0-1L28,12a5,5,0,0,0,2.84,0l6.46,2.23c-.78.28-.77.72,0,1l-16.76,5.9A5,5,0,0,0,17.73,21.16Z"/><path class="cls-1" d="M27.18,15.58c2,.71,2.41,1.73.81,2.3a11.85,11.85,0,0,1-6.6-.26c-2-.71-2.41-1.73-.81-2.29A11.83,11.83,0,0,1,27.18,15.58Z"/><path class="cls-1" d="M33.14,13.48c.37.13.37.33,0,.46a2.33,2.33,0,0,1-1.32,0c-.37-.13-.37-.33,0-.46A2.33,2.33,0,0,1,33.14,13.48Z"/><path class="cls-1" d="M16.74,19.25c.37.13.37.33,0,.46a2.33,2.33,0,0,1-1.32,0c-.37-.13-.37-.33,0-.46A2.35,2.35,0,0,1,16.74,19.25Z"/><path class="cls-5" d="M27.11,17.68l-.53-.18a10.2,10.2,0,0,1-2.54.35l-.11-.4a8.58,8.58,0,0,0,1.86-.22l-1.4-.48a9.75,9.75,0,0,1-1.69.24,3.63,3.63,0,0,1-1.31-.19c-.42-.14-.61-.31-.59-.5s.25-.37.69-.54l-.36-.12.45-.16.37.13a9.1,9.1,0,0,1,2-.34l.2.39a7.4,7.4,0,0,0-1.44.21l1.35.47h0a9.93,9.93,0,0,1,1.73-.24,3.78,3.78,0,0,1,1.35.2c.42.15.61.32.58.51s-.28.38-.74.56l.52.18ZM22,16.26c0,.08.06.15.22.2a1.54,1.54,0,0,0,.52.08,5,5,0,0,0,.81-.1L22.27,16C22.08,16.1,22,16.18,22,16.26Zm4.66.56c0-.08-.05-.15-.22-.21a1.62,1.62,0,0,0-.56-.08,5.33,5.33,0,0,0-.86.11l1.29.45C26.48,17,26.6,16.9,26.62,16.82Z"/><polygon class="cls-2" points="35.11 12.56 29.41 10.59 18.34 14.49 8.29 15.65 8.29 18.03 19.16 21.77 40.27 14.34 40.27 11.96 35.11 12.56"/><polygon class="cls-1" points="29.41 8.22 8.29 15.65 19.16 19.39 40.27 11.96 29.41 8.22"/><path class="cls-2" d="M17.73,18.37l-6.46-2.22c.78-.27.77-.72,0-1L28,9.25a5,5,0,0,0,2.84,0l6.46,2.22c-.78.27-.77.72,0,1l-16.76,5.9A5,5,0,0,0,17.73,18.37Z"/><path class="cls-1" d="M27.18,12.79c2,.7,2.41,1.73.81,2.29a11.83,11.83,0,0,1-6.6-.26c-2-.71-2.41-1.73-.81-2.3A11.83,11.83,0,0,1,27.18,12.79Z"/><path class="cls-1" d="M33.14,10.69c.37.13.37.33,0,.46a2.35,2.35,0,0,1-1.32,0c-.37-.13-.37-.33,0-.46A2.35,2.35,0,0,1,33.14,10.69Z"/><path class="cls-1" d="M16.74,16.46c.37.12.37.33,0,.46a2.32,2.32,0,0,1-1.32,0c-.37-.13-.37-.33,0-.46A2.34,2.34,0,0,1,16.74,16.46Z"/><polygon class="cls-6" points="27.24 16.55 27.24 30.09 32.1 28.38 32.1 14.84 27.24 16.55"/><polygon class="cls-7" points="27.82 16.34 27.82 29.89 28.32 29.71 28.32 16.17 27.82 16.34"/><polygon class="cls-7" points="31.02 15.22 31.02 28.77 31.52 28.59 31.52 15.05 31.02 15.22"/><path class="cls-8" d="M31.56,34.62c0,1-1.85,1.74-4.13,1.74s-4.13-.78-4.13-1.74V33.19h8.26Z"/><ellipse class="cls-7" cx="27.43" cy="33.19" rx="4.13" ry="1.74"/><path class="cls-9" d="M27.43,31.8c-2,0-3.61.63-3.61,1.4s1.61,1.4,3.61,1.4S31,34,31,33.19,29.42,31.8,27.43,31.8Zm0,2.64c-1.77,0-3.21-.56-3.21-1.24S25.66,32,27.43,32s3.2.56,3.2,1.24S29.2,34.44,27.43,34.44Z"/><path class="cls-9" d="M27.3,34.16V34a5.22,5.22,0,0,1-1.48-.25l.44-.2a4.06,4.06,0,0,0,1,.2v-.45a4.81,4.81,0,0,1-1-.17c-.21-.07-.31-.17-.31-.3s.12-.24.36-.33a3.14,3.14,0,0,1,.95-.14v-.12h.38v.12a5.47,5.47,0,0,1,1.25.17l-.39.21a3.92,3.92,0,0,0-.86-.13V33h0a5.12,5.12,0,0,1,1,.17c.22.07.32.18.32.31s-.12.25-.37.33a3.34,3.34,0,0,1-1,.14v.17Zm-.42-1.5c-.1,0-.15.08-.15.13s0,.09.12.12a2.09,2.09,0,0,0,.46.09v-.4A1.46,1.46,0,0,0,26.88,32.66Zm1.26,1c.11,0,.17-.08.17-.13s0-.1-.13-.13a2.69,2.69,0,0,0-.49-.09v.42A1.82,1.82,0,0,0,28.14,33.68Z"/><path class="cls-8" d="M31.56,32.89c0,1-1.85,1.74-4.13,1.74s-4.13-.78-4.13-1.74V31.47h8.26Z"/><ellipse class="cls-7" cx="27.43" cy="31.47" rx="4.13" ry="1.74"/><path class="cls-9" d="M27.43,30.07c-2,0-3.61.63-3.61,1.4s1.61,1.4,3.61,1.4,3.6-.62,3.6-1.4S29.42,30.07,27.43,30.07Zm0,2.64c-1.77,0-3.21-.56-3.21-1.24s1.43-1.24,3.21-1.24,3.2.55,3.2,1.24S29.2,32.71,27.43,32.71Z"/><path class="cls-9" d="M27.3,32.43v-.17A5.15,5.15,0,0,1,25.82,32l.44-.2a4,4,0,0,0,1,.2v-.45a5.09,5.09,0,0,1-1-.16c-.21-.07-.31-.17-.31-.3s.12-.24.36-.33a3.13,3.13,0,0,1,.95-.14V30.5h.38v.12a5.47,5.47,0,0,1,1.25.18l-.39.21a4,4,0,0,0-.86-.14v.44h0a4.92,4.92,0,0,1,1,.17c.22.07.32.18.32.31s-.12.25-.37.33a3.29,3.29,0,0,1-1,.14v.17Zm-.42-1.5c-.1,0-.15.08-.15.13s0,.09.12.12a2.3,2.3,0,0,0,.46.09v-.4A1.58,1.58,0,0,0,26.88,30.93Zm1.26,1c.11,0,.17-.08.17-.13s0-.1-.13-.13a2.53,2.53,0,0,0-.49-.09V32A1.75,1.75,0,0,0,28.14,32Z"/><path class="cls-8" d="M31.56,31.17c0,1-1.85,1.74-4.13,1.74s-4.13-.78-4.13-1.74V29.74h8.26Z"/><ellipse class="cls-7" cx="27.43" cy="29.74" rx="4.13" ry="1.74"/><path class="cls-9" d="M27.43,28.35c-2,0-3.61.63-3.61,1.4s1.61,1.4,3.61,1.4,3.6-.63,3.6-1.4S29.42,28.35,27.43,28.35Zm0,2.64c-1.77,0-3.21-.55-3.21-1.24s1.43-1.24,3.21-1.24,3.2.56,3.2,1.24S29.2,31,27.43,31Z"/><path class="cls-9" d="M27.3,30.71v-.17a5.24,5.24,0,0,1-1.48-.25l.44-.2a4.06,4.06,0,0,0,1,.2v-.45a4.92,4.92,0,0,1-1-.17c-.21-.07-.31-.17-.31-.3s.12-.24.36-.33a3,3,0,0,1,.95-.14v-.12h.38v.12a5.39,5.39,0,0,1,1.25.18l-.39.21a3.91,3.91,0,0,0-.86-.13v.44h0a4.91,4.91,0,0,1,1,.17c.22.07.32.17.32.31s-.12.25-.37.33a3.39,3.39,0,0,1-1,.14v.17Zm-.42-1.5c-.1,0-.15.08-.15.13s0,.09.12.12a2.27,2.27,0,0,0,.46.09v-.4A1.45,1.45,0,0,0,26.88,29.21Zm1.26,1c.11,0,.17-.08.17-.14s0-.1-.13-.13a2.56,2.56,0,0,0-.49-.09v.42A1.87,1.87,0,0,0,28.14,30.23Z"/><path class="cls-8" d="M31.56,29.44c0,1-1.85,1.74-4.13,1.74s-4.13-.78-4.13-1.74V28h8.26Z"/><ellipse class="cls-7" cx="27.43" cy="28.02" rx="4.13" ry="1.74"/><path class="cls-9" d="M27.43,26.62c-2,0-3.61.63-3.61,1.4s1.61,1.4,3.61,1.4S31,28.79,31,28,29.42,26.62,27.43,26.62Zm0,2.64c-1.77,0-3.21-.56-3.21-1.24s1.43-1.24,3.21-1.24,3.2.56,3.2,1.24S29.2,29.26,27.43,29.26Z"/><path class="cls-9" d="M27.3,29v-.17a5.24,5.24,0,0,1-1.48-.25l.44-.2a4,4,0,0,0,1,.2v-.45a4.94,4.94,0,0,1-1-.16c-.21-.07-.31-.17-.31-.31s.12-.24.36-.33a3.12,3.12,0,0,1,.95-.14v-.12h.38v.12a5.47,5.47,0,0,1,1.25.17l-.39.21a4.27,4.27,0,0,0-.86-.13v.44h0a5,5,0,0,1,1,.17c.22.07.32.18.32.31s-.12.25-.37.33a3.27,3.27,0,0,1-1,.14V29Zm-.42-1.5c-.1,0-.15.08-.15.13s0,.09.12.12a2.35,2.35,0,0,0,.46.09v-.4A1.53,1.53,0,0,0,26.88,27.48Zm1.26,1c.11,0,.17-.08.17-.13s0-.1-.13-.13a2.55,2.55,0,0,0-.49-.09v.42A1.74,1.74,0,0,0,28.14,28.5Z"/><path class="cls-8" d="M31.56,27.71c0,1-1.85,1.73-4.13,1.73s-4.13-.78-4.13-1.73V26.29h8.26Z"/><ellipse class="cls-7" cx="27.43" cy="26.29" rx="4.13" ry="1.74"/><path class="cls-9" d="M27.43,24.9c-2,0-3.61.63-3.61,1.4s1.61,1.4,3.61,1.4,3.6-.63,3.6-1.4S29.42,24.9,27.43,24.9Zm0,2.64c-1.77,0-3.21-.56-3.21-1.24S25.66,25,27.43,25s3.2.56,3.2,1.24S29.2,27.53,27.43,27.53Z"/><path class="cls-9" d="M27.3,27.26v-.17a5.22,5.22,0,0,1-1.48-.26l.44-.2a4,4,0,0,0,1,.2v-.45a5.05,5.05,0,0,1-1-.16c-.21-.07-.31-.17-.31-.31s.12-.24.36-.33a3.11,3.11,0,0,1,.95-.14v-.12h.38v.12a5.39,5.39,0,0,1,1.25.18l-.39.21a4,4,0,0,0-.86-.14v.44h0a4.85,4.85,0,0,1,1,.17c.22.07.32.17.32.31s-.12.25-.37.33a3.23,3.23,0,0,1-1,.14v.17Zm-.42-1.5c-.1,0-.15.08-.15.13s0,.09.12.12a2.18,2.18,0,0,0,.46.09v-.4A1.45,1.45,0,0,0,26.88,25.76Zm1.26,1c.11,0,.17-.08.17-.13s0-.1-.13-.13a2.53,2.53,0,0,0-.49-.09v.42A1.79,1.79,0,0,0,28.14,26.78Z"/><path class="cls-8" d="M31.56,26c0,1-1.85,1.74-4.13,1.74S23.3,26.95,23.3,26V24.57h8.26Z"/><ellipse class="cls-7" cx="27.43" cy="24.57" rx="4.13" ry="1.74"/><path class="cls-9" d="M27.43,23.17c-2,0-3.61.63-3.61,1.4S25.44,26,27.43,26s3.6-.62,3.6-1.4S29.42,23.17,27.43,23.17Zm0,2.64c-1.77,0-3.21-.56-3.21-1.24s1.43-1.24,3.21-1.24,3.2.56,3.2,1.24S29.2,25.81,27.43,25.81Z"/><path class="cls-9" d="M27.3,25.53v-.17a5.22,5.22,0,0,1-1.48-.25l.44-.2a4.1,4.1,0,0,0,1,.2v-.45a5,5,0,0,1-1-.17c-.21-.07-.31-.17-.31-.3s.12-.24.36-.33a3.07,3.07,0,0,1,.95-.14V23.6h.38v.12a5.58,5.58,0,0,1,1.25.17l-.39.21a4.17,4.17,0,0,0-.86-.13v.44h0a5,5,0,0,1,1,.17c.22.07.32.18.32.31s-.12.25-.37.33a3.32,3.32,0,0,1-1,.14v.17ZM26.88,24c-.1,0-.15.08-.15.13s0,.09.12.12a2.22,2.22,0,0,0,.46.09V24A1.45,1.45,0,0,0,26.88,24Zm1.26,1c.11,0,.17-.08.17-.14s0-.1-.13-.13a2.52,2.52,0,0,0-.49-.09v.42A1.73,1.73,0,0,0,28.14,25Z"/><path class="cls-8" d="M31.56,24.26c0,1-1.85,1.74-4.13,1.74s-4.13-.78-4.13-1.74V22.84h8.26Z"/><ellipse class="cls-7" cx="27.43" cy="22.84" rx="4.13" ry="1.74"/><path class="cls-9" d="M27.43,21.44c-2,0-3.61.63-3.61,1.4s1.61,1.4,3.61,1.4,3.6-.63,3.6-1.4S29.42,21.44,27.43,21.44Zm0,2.64c-1.77,0-3.21-.56-3.21-1.24s1.43-1.24,3.21-1.24,3.2.56,3.2,1.24S29.2,24.08,27.43,24.08Z"/><path class="cls-9" d="M27.3,23.81v-.17a5.17,5.17,0,0,1-1.48-.25l.44-.2a4,4,0,0,0,1,.2v-.45a5.09,5.09,0,0,1-1-.16c-.21-.07-.31-.17-.31-.31s.12-.24.36-.33A3.07,3.07,0,0,1,27.3,22v-.12h.38V22a5.5,5.5,0,0,1,1.25.18l-.39.21a4,4,0,0,0-.86-.14v.44h0a4.9,4.9,0,0,1,1,.17c.22.07.32.18.32.31s-.12.25-.37.33a3.23,3.23,0,0,1-1,.14v.17Zm-.42-1.5c-.1,0-.15.08-.15.13s0,.09.12.12a2.35,2.35,0,0,0,.46.09v-.4A1.54,1.54,0,0,0,26.88,22.3Zm1.26,1c.11,0,.17-.08.17-.13s0-.1-.13-.13a2.6,2.6,0,0,0-.49-.09v.42A1.82,1.82,0,0,0,28.14,23.32Z"/><path class="cls-8" d="M31.56,22.54c0,1-1.85,1.74-4.13,1.74s-4.13-.78-4.13-1.74V21.12h8.26Z"/><ellipse class="cls-7" cx="27.43" cy="21.12" rx="4.13" ry="1.74"/><path class="cls-9" d="M27.43,19.72c-2,0-3.61.63-3.61,1.4s1.61,1.4,3.61,1.4,3.6-.62,3.6-1.4S29.42,19.72,27.43,19.72Zm0,2.64c-1.77,0-3.21-.56-3.21-1.24s1.43-1.24,3.21-1.24,3.2.56,3.2,1.24S29.2,22.36,27.43,22.36Z"/><path class="cls-8" d="M40.27,34.62c0,1-1.85,1.74-4.13,1.74S32,35.57,32,34.62V33.19h8.26Z"/><ellipse class="cls-7" cx="36.14" cy="33.19" rx="4.13" ry="1.74"/><path class="cls-9" d="M36.14,31.8c-2,0-3.61.63-3.61,1.4s1.61,1.4,3.61,1.4,3.6-.63,3.6-1.4S38.13,31.8,36.14,31.8Zm0,2.64c-1.77,0-3.21-.56-3.21-1.24S34.37,32,36.14,32s3.2.56,3.2,1.24S37.91,34.44,36.14,34.44Z"/><path class="cls-9" d="M36,34.16V34a5.24,5.24,0,0,1-1.48-.25l.44-.2a4,4,0,0,0,1,.2v-.45a4.85,4.85,0,0,1-1-.17c-.21-.07-.32-.17-.32-.3s.12-.24.36-.33a3.15,3.15,0,0,1,.95-.14v-.12h.38v.12a5.49,5.49,0,0,1,1.25.17l-.39.21a4,4,0,0,0-.86-.13V33h0a5.11,5.11,0,0,1,1,.17c.22.07.33.18.33.31s-.12.25-.37.33a3.34,3.34,0,0,1-1,.14v.17Zm-.42-1.5c-.1,0-.15.08-.15.13s0,.09.12.12A2.13,2.13,0,0,0,36,33v-.4A1.45,1.45,0,0,0,35.59,32.66Zm1.26,1c.11,0,.17-.08.17-.13s0-.1-.13-.13a2.66,2.66,0,0,0-.49-.09v.42A1.84,1.84,0,0,0,36.85,33.68Z"/><path class="cls-8" d="M40.27,32.89c0,1-1.85,1.74-4.13,1.74S32,33.85,32,32.89V31.47h8.26Z"/><ellipse class="cls-7" cx="36.14" cy="31.47" rx="4.13" ry="1.74"/><path class="cls-9" d="M36.14,30.07c-2,0-3.61.63-3.61,1.4s1.61,1.4,3.61,1.4,3.6-.62,3.6-1.4S38.13,30.07,36.14,30.07Zm0,2.64c-1.77,0-3.21-.56-3.21-1.24s1.43-1.24,3.21-1.24,3.2.55,3.2,1.24S37.91,32.71,36.14,32.71Z"/><path class="cls-9" d="M36,32.43v-.17A5.16,5.16,0,0,1,34.53,32l.44-.2a4,4,0,0,0,1,.2v-.45a5.13,5.13,0,0,1-1-.16c-.21-.07-.32-.17-.32-.3s.12-.24.36-.33a3.14,3.14,0,0,1,.95-.14V30.5h.38v.12a5.49,5.49,0,0,1,1.25.18l-.39.21a4.06,4.06,0,0,0-.86-.14v.44h0a4.9,4.9,0,0,1,1,.17c.22.07.33.18.33.31s-.12.25-.37.33a3.28,3.28,0,0,1-1,.14v.17Zm-.42-1.5c-.1,0-.15.08-.15.13s0,.09.12.12a2.35,2.35,0,0,0,.46.09v-.4A1.56,1.56,0,0,0,35.59,30.93Zm1.26,1c.11,0,.17-.08.17-.13s0-.1-.13-.13a2.5,2.5,0,0,0-.49-.09V32A1.78,1.78,0,0,0,36.85,32Z"/><path class="cls-8" d="M40.27,31.17c0,1-1.85,1.74-4.13,1.74S32,32.12,32,31.17V29.74h8.26Z"/><ellipse class="cls-7" cx="36.14" cy="29.74" rx="4.13" ry="1.74"/><path class="cls-9" d="M36.14,28.35c-2,0-3.61.63-3.61,1.4s1.61,1.4,3.61,1.4,3.6-.63,3.6-1.4S38.13,28.35,36.14,28.35Zm0,2.64c-1.77,0-3.21-.55-3.21-1.24s1.43-1.24,3.21-1.24,3.2.56,3.2,1.24S37.91,31,36.14,31Z"/><path class="cls-9" d="M36,30.71v-.17a5.25,5.25,0,0,1-1.48-.25l.44-.2a4,4,0,0,0,1,.2v-.45a5,5,0,0,1-1-.17c-.21-.07-.32-.17-.32-.3s.12-.24.36-.33A3,3,0,0,1,36,28.9v-.12h.38v.12a5.41,5.41,0,0,1,1.25.18l-.39.21a3.94,3.94,0,0,0-.86-.13v.44h0a4.9,4.9,0,0,1,1,.17c.22.07.33.17.33.31s-.12.25-.37.33a3.39,3.39,0,0,1-1,.14v.17Zm-.42-1.5c-.1,0-.15.08-.15.13s0,.09.12.12a2.32,2.32,0,0,0,.46.09v-.4A1.44,1.44,0,0,0,35.59,29.21Zm1.26,1c.11,0,.17-.08.17-.14s0-.1-.13-.13a2.53,2.53,0,0,0-.49-.09v.42A1.9,1.9,0,0,0,36.85,30.23Z"/><path class="cls-8" d="M40.27,29.44c0,1-1.85,1.74-4.13,1.74S32,30.4,32,29.44V28h8.26Z"/><ellipse class="cls-7" cx="36.14" cy="28.02" rx="4.13" ry="1.74"/><path class="cls-9" d="M36.14,26.62c-2,0-3.61.63-3.61,1.4s1.61,1.4,3.61,1.4,3.6-.62,3.6-1.4S38.13,26.62,36.14,26.62Zm0,2.64c-1.77,0-3.21-.56-3.21-1.24s1.43-1.24,3.21-1.24,3.2.56,3.2,1.24S37.91,29.26,36.14,29.26Z"/><path class="cls-9" d="M36,29v-.17a5.25,5.25,0,0,1-1.48-.25l.44-.2a4,4,0,0,0,1,.2v-.45a5,5,0,0,1-1-.16c-.21-.07-.32-.17-.32-.31s.12-.24.36-.33a3.13,3.13,0,0,1,.95-.14v-.12h.38v.12a5.48,5.48,0,0,1,1.25.17l-.39.21a4.3,4.3,0,0,0-.86-.13v.44h0a5,5,0,0,1,1,.17c.22.07.33.18.33.31s-.12.25-.37.33a3.27,3.27,0,0,1-1,.14V29Zm-.42-1.5c-.1,0-.15.08-.15.13s0,.09.12.12a2.4,2.4,0,0,0,.46.09v-.4A1.51,1.51,0,0,0,35.59,27.48Zm1.26,1c.11,0,.17-.08.17-.13s0-.1-.13-.13a2.52,2.52,0,0,0-.49-.09v.42A1.76,1.76,0,0,0,36.85,28.5Z"/><path class="cls-8" d="M40.27,27.71c0,1-1.85,1.73-4.13,1.73S32,28.67,32,27.71V26.29h8.26Z"/><ellipse class="cls-7" cx="36.14" cy="26.29" rx="4.13" ry="1.74"/><path class="cls-9" d="M36.14,24.9c-2,0-3.61.63-3.61,1.4s1.61,1.4,3.61,1.4,3.6-.63,3.6-1.4S38.13,24.9,36.14,24.9Zm0,2.64c-1.77,0-3.21-.56-3.21-1.24S34.37,25,36.14,25s3.2.56,3.2,1.24S37.91,27.53,36.14,27.53Z"/><circle class="cls-7" cx="28.83" cy="31.81" r="4.55"/><path class="cls-9" d="M28.83,27.84a4,4,0,1,0,4,4A4,4,0,0,0,28.83,27.84Zm0,7.5a3.53,3.53,0,1,1,3.53-3.53A3.53,3.53,0,0,1,28.83,35.33Z"/><polygon class="cls-10" points="49.8 15.63 52.8 12.9 50.61 11.92 49.8 15.63"/><polygon class="cls-11" points="45.93 8.9 55.01 15.63 57.96 4.68 45.93 8.9"/><polygon class="cls-10" points="49.8 15.63 49.26 11.37 57.57 5.13 50.71 12.42 49.8 15.63"/><polygon class="cls-12" points="5.39 40.63 64.38 40.63 64.38 2.54 5.39 40.63"/></g></g></svg>