<svg xmlns="http://www.w3.org/2000/svg" viewBox="0 0 54.33 54.3"><defs><style>.cls-1{fill:#0157a5;}.cls-2{fill:#ffc95c;}.cls-3{fill:#f8ab49;}</style></defs><title>blank</title><g id="Слой_2" data-name="Слой 2"><g id="Layer_1" data-name="Layer 1"><rect class="cls-1" x="19.35" y="33.13" width="1.77" height="40.47" transform="translate(-33.17 73.5) rotate(-89.88)"/><polygon class="cls-2" points="31.81 0.1 0.2 0 0 52.38 40.57 52.48 40.67 8.96 31.81 0.1"/><polygon class="cls-3" points="31.81 8.96 40.67 8.96 31.81 0.1 31.81 8.96"/><rect class="cls-1" x="7.74" y="1.36" width="0.98" height="8.67" transform="translate(2.53 13.91) rotate(-89.89)"/><rect class="cls-1" x="31.83" y="38.25" width="0.98" height="8.66" transform="translate(-10.32 74.82) rotate(-89.89)"/><rect class="cls-1" x="33.27" y="42.89" width="0.98" height="5.71" transform="translate(-12.05 79.41) rotate(-89.88)"/><rect class="cls-3" x="19.9" y="7.57" width="0.98" height="14.38" transform="translate(5.59 35.12) rotate(-89.89)"/><rect class="cls-3" x="19.86" y="2.87" width="0.98" height="32.59" transform="translate(1.14 39.47) rotate(-89.88)"/><rect class="cls-3" x="19.87" y="6.49" width="0.98" height="32.59" transform="translate(-2.46 43.1) rotate(-89.89)"/><rect class="cls-3" x="15.97" y="14.06" width="0.98" height="24.81" transform="translate(-10.04 42.88) rotate(-89.89)"/><rect class="cls-3" x="19.88" y="13.73" width="0.98" height="32.59" transform="translate(-9.69 50.34) rotate(-89.89)"/><rect class="cls-3" x="19.89" y="17.35" width="0.98" height="32.59" transform="translate(-13.3 53.96) rotate(-89.88)"/><rect class="cls-3" x="12.85" y="27.97" width="0.98" height="18.61" transform="translate(-23.96 50.54) rotate(-89.88)"/><rect class="cls-1" x="9.85" y="2.95" width="0.98" height="12.8" transform="matrix(0, -1, 1, 0, 0.97, 19.68)"/><path class="cls-1" d="M33.87,35.55,54.26,14.38a.18.18,0,0,0,0-.3L52,11.82a.18.18,0,0,0-.3,0L30.43,32.1h0l-3.54,4.43,2.56,2.56,4.43-3.54Z"/><polygon class="cls-1" points="26.59 37.42 24.42 38.7 23.14 42.73 27.28 41.55 28.46 39.39 26.59 37.42"/><circle class="cls-1" cx="25.92" cy="40.05" r="0.59" transform="translate(-20.7 29.96) rotate(-44.88)"/><path class="cls-1" d="M29.54,39.19l-2.76-2.76c-.2-.2-.49-.2-.59,0h0c-.2.2-.2.49,0,.59L29,39.78c.2.2.49.2.59,0h0A.37.37,0,0,0,29.54,39.19Z"/><polygon class="cls-1" points="44.21 24.71 41.26 21.76 40.77 22.25 43.72 25.21 44.21 24.71"/><path class="cls-1" d="M53.67,15,51,12.31l-.49.49.89.89-7.19,7.09a.18.18,0,0,0,0,.3l.59.59a.18.18,0,0,0,.29,0l7.19-7.09.89.89Z"/><rect class="cls-1" x="44.21" y="17.39" width="8.37" height="0.49" transform="translate(1.66 39.28) rotate(-44.88)"/></g></g></svg>