<svg xmlns="http://www.w3.org/2000/svg" viewBox="0 0 54.53 47.21"><defs><style>.cls-1{fill:#f8ab49;}.cls-2{fill:#ffc95c;}.cls-3{fill:#0157a5;}.cls-4{fill:#004172;}.cls-5{fill:#00529b;}</style></defs><title>budget</title><g id="Слой_2" data-name="Слой 2"><g id="Layer_1" data-name="Layer 1"><rect class="cls-1" x="5.55" y="16.42" width="21.39" height="24.25"/><rect class="cls-2" x="26.94" y="16.42" width="20.44" height="24.25"/><rect class="cls-3" x="1.9" y="40.56" width="25.04" height="3.81"/><rect class="cls-3" x="26.94" y="40.56" width="25.33" height="3.81"/><rect class="cls-4" y="43.4" width="26.94" height="3.81"/><rect class="cls-4" x="26.94" y="43.4" width="27.59" height="3.81"/><rect class="cls-4" x="4.94" y="15.8" width="3.89" height="24.76"/><rect class="cls-4" x="18.26" y="15.8" width="3.89" height="24.76"/><rect class="cls-4" x="31.58" y="15.8" width="3.89" height="24.76"/><rect class="cls-4" x="44.9" y="15.8" width="3.89" height="24.76"/><rect class="cls-5" x="44.1" y="37.79" width="5.5" height="2.77"/><rect class="cls-5" x="30.78" y="37.79" width="5.5" height="2.77"/><rect class="cls-5" x="17.45" y="37.79" width="5.5" height="2.77"/><rect class="cls-5" x="4.13" y="37.79" width="5.5" height="2.77"/><rect class="cls-5" x="44.1" y="15.92" width="5.5" height="2.04"/><rect class="cls-5" x="30.78" y="15.92" width="5.5" height="2.04"/><rect class="cls-5" x="17.45" y="15.92" width="5.5" height="2.04"/><rect class="cls-5" x="4.13" y="15.92" width="5.5" height="2.04"/><polygon class="cls-2" points="26.89 0 2.79 14.68 26.94 14.68 26.94 0.03 26.89 0"/><polygon class="cls-1" points="26.94 0.03 26.94 14.68 51 14.68 26.94 0.03"/><rect class="cls-5" x="2.79" y="14.68" width="24.15" height="2.26"/><rect class="cls-5" x="26.94" y="14.68" width="24.06" height="2.26"/><polygon class="cls-1" points="26.89 3.24 10.34 13.32 26.94 13.32 26.94 3.27 26.89 3.24"/><polygon class="cls-2" points="26.94 3.27 26.94 13.32 43.87 13.32 26.94 3.27"/><path class="cls-2" d="M26.17,26.63A3,3,0,0,0,23,29.34v11.2h4V26.63Z"/><path class="cls-1" d="M30.79,29.34a3,3,0,0,0-3.2-2.71h-.65V40.55h3.86Z"/><path class="cls-2" d="M25.06,8.6a2,2,0,0,0,1.88,2v-4A2,2,0,0,0,25.06,8.6Z"/><path class="cls-1" d="M27.08,6.58h-.14v4h.14a2,2,0,0,0,0-4Z"/></g></g></svg>