<?xml version="1.0" encoding="utf-8"?>
<!-- Generator: Adobe Illustrator 19.1.0, SVG Export Plug-In . SVG Version: 6.00 Build 0)  -->
<svg version="1.1" id="Слой_1" xmlns="http://www.w3.org/2000/svg" xmlns:xlink="http://www.w3.org/1999/xlink" x="0px" y="0px"
	 viewBox="0 0 56.4 56.9" style="enable-background:new 0 0 56.4 56.9;" xml:space="preserve">
<style type="text/css">
	.st0{fill:#FAFAFA;}
	.st1{opacity:0.2;}
	.st2{opacity:0.8;fill:url(#SVGID_3_);}
	.st3{opacity:0.8;}
	.st4{fill:#FFFFFF;}
	.st5{fill-rule:evenodd;clip-rule:evenodd;fill:#FFFFFF;}
	.st6{fill:#FFF1E1;}
	.st7{fill:#FFFFFF;stroke:#0157A5;stroke-miterlimit:10;}
	.st8{fill:#0157A5;}
	.st9{opacity:0.5;fill:#FFFFFF;}
	.st10{fill:none;stroke:#B1B1B1;stroke-miterlimit:10;}
	.st11{fill:#B1B1B1;}
	.st12{opacity:0.1;fill:#FFFFFF;}
	.st13{fill:#FFC95C;}
	.st14{fill:#7EA9D3;}
	.st15{fill:none;stroke:#E4E4E4;stroke-miterlimit:10;}
	.st16{fill:#666666;}
	.st17{opacity:0.9;fill:#FFFFFF;stroke:#B1B1B1;stroke-miterlimit:10;}
	.st18{fill:#333333;}
	.st19{opacity:0.9;fill:#FFFFFF;}
	.st20{fill:#13307A;}
	.st21{fill:#00AEEF;}
	.st22{fill-rule:evenodd;clip-rule:evenodd;fill:#F0F0F0;}
	.st23{opacity:0.8;fill:url(#SVGID_6_);}
	.st24{opacity:0.8;fill:url(#SVGID_9_);}
	.st25{opacity:0.8;fill:url(#SVGID_12_);}
	.st26{opacity:0.9;fill:#333333;}
</style>
<path class="st16" d="M21.4,25.7c1-0.7,0.6-1.2-0.3-0.7c-0.4,0.2-3.3,2.2-5,4.2c-2.4,1-4.5,1.5-5.6,1.5s-5.2,0.9-5.8,1.6
	C4.4,32.9,1.3,46.9,0,56.9h56.4c-1.3-10.1-4.4-24.1-4.8-24.6c-0.5-0.7-4.7-1.6-5.8-1.6s-3.2-0.5-5.6-1.5c-1.7-1.9-4.6-3.9-5-4.2
	c-0.8-0.5-1.3,0-0.3,0.7s1.3,4.4,1.3,4.4s0.5,6.2-1.1,11.5c-1.6,5.3-5.3,9.2-5.3,9.2L28.8,32c0,0,1.3-1.9,1.2-2.5
	c-0.1-0.4-0.7-1-1.2-1.5c1.5-1.7,3.4-2.1,4-2.3c0.6-0.2,0.6-0.7,0.6-0.7l0-1.2c0,0,1.8-1.3,2.3-5.5c1.1,0.3,1.5-1.3,1.5-2.3
	c0.1-1,0.7-4.1-0.7-3.8c0.3-2.1,0.5-3.9,0.4-4.9c-0.3-3.5-2.7-7.1-8.7-7.3c-5.1,0.3-8.4,3.9-8.7,7.3c-0.1,1,0.1,2.8,0.4,4.9
	C18.5,12,19.1,15,19.2,16c0.1,1,0.3,2.6,1.4,2.3c0.5,4.2,2.2,5.5,2.2,5.5v1.2c0,0,0,0.5,0.6,0.7c0.6,0.2,2.7,0.6,4.2,2.3
	c-0.5,0.4-1.1,1.1-1.2,1.5c-0.1,0.6,1.2,2.5,1.2,2.5l-1.1,18.8c0,0-3.7-3.9-5.3-9.2s-1.1-11.5-1.1-11.5S20.4,26.4,21.4,25.7z"/>
</svg>
