<svg xmlns="http://www.w3.org/2000/svg" viewBox="0 0 31.26 31.27"><defs><style>.cls-1{fill:#fb0;}.cls-2{fill:#f8ab49;}.cls-3{fill:#0157a5;}.cls-4{fill:#fff;}</style></defs><title>calc</title><g id="Слой_2" data-name="Слой 2"><g id="Layer_1" data-name="Layer 1"><rect class="cls-1" width="15.63" height="15.63"/><rect class="cls-2" x="15.63" width="15.63" height="15.63"/><rect class="cls-2" y="15.63" width="15.63" height="15.63"/><rect class="cls-3" x="15.63" y="15.63" width="15.63" height="15.63"/><path class="cls-4" d="M26.8,25.68H20.1a.56.56,0,1,1,0-1.12h6.7a.56.56,0,1,1,0,1.12Z"/><path class="cls-4" d="M26.8,22.33H20.1a.56.56,0,1,1,0-1.12h6.7a.56.56,0,1,1,0,1.12Z"/><path class="cls-4" d="M7.81,24a.56.56,0,0,1-.39-1l2.79-2.79a.56.56,0,0,1,.79.79L8.21,23.84A.55.55,0,0,1,7.81,24Z"/><path class="cls-4" d="M5,26.8a.56.56,0,0,1-.39-1l2.79-2.79a.56.56,0,1,1,.79.79L5.42,26.64A.55.55,0,0,1,5,26.8Z"/><path class="cls-4" d="M10.61,26.8a.55.55,0,0,1-.4-.16L7.42,23.84a.56.56,0,1,1,.79-.79L11,25.85a.56.56,0,0,1-.39,1Z"/><path class="cls-4" d="M7.81,24a.56.56,0,0,1-.39-.16L4.63,21.05a.56.56,0,0,1,.79-.79l2.79,2.79a.56.56,0,0,1-.39,1Z"/><path class="cls-4" d="M11.17,8.38H4.46a.56.56,0,0,1,0-1.12h6.7a.56.56,0,0,1,0,1.12Z"/><path class="cls-4" d="M7.81,11.72a.56.56,0,0,1-.56-.56V4.47a.56.56,0,1,1,1.12,0v6.7A.56.56,0,0,1,7.81,11.72Z"/><path class="cls-4" d="M26.8,8.38H20.1a.56.56,0,0,1,0-1.12h6.7a.56.56,0,1,1,0,1.12Z"/></g></g></svg>