<svg xmlns="http://www.w3.org/2000/svg" viewBox="0 0 206.43 44.35"><defs><style>.cls-1,.cls-2{fill:#245fa9;}.cls-1{fill-rule:evenodd;}.cls-2{font-size:20.26px;font-family:OpenSans-BoldItalic, Open Sans;font-weight:700;font-style:italic;}.cls-3{letter-spacing:-0.01em;}.cls-4{letter-spacing:0em;}.cls-5{letter-spacing:0em;}.cls-6{letter-spacing:0em;}.cls-7{letter-spacing:0em;}.cls-8{letter-spacing:0em;}.cls-9{letter-spacing:-0.02em;}</style></defs><title>city_post</title><g id="Слой_2" data-name="Слой 2"><g id="Слой_1-2" data-name="Слой 1"><path class="cls-1" d="M98.42,2.39c-9.1.6-18.2,1.19-30.61,1.84S39.6,5.65,27.75,5.34A176.72,176.72,0,0,1,0,2.39,30.09,30.09,0,0,0,9.92,8.71c4.71,1.76,11.51,3,21.57,2.92S54.91,10,66.61,8.2s21.74-3.8,31.8-5.81Z"/><path class="cls-1" d="M96.09,9c-13.38,2.3-26.76,4.59-35.89,6.07s-14,2.1-18.71,2.41a91.36,91.36,0,0,1-13.15-.09,71.8,71.8,0,0,1-9.69-1.62s0,0-.06,0A62.28,62.28,0,0,0,31,20.14,84.68,84.68,0,0,0,49.92,22a174.94,174.94,0,0,0,19.47-1.62c5.1-.62,7.94-1,10.8-1.33a21.81,21.81,0,0,0-3.49,6.86,13.88,13.88,0,0,0,.45,7.37,11.68,11.68,0,0,0,3.06,4.42,68.53,68.53,0,0,1,3.49-11A57.22,57.22,0,0,1,89.89,16.4,90.34,90.34,0,0,1,96.09,9Z"/><text class="cls-2" transform="translate(101.51 19.17)"><tspan class="cls-3">С</tspan><tspan class="cls-4" x="12.17" y="0">А</tspan><tspan class="cls-5" x="24.86" y="0">Й</tspan><tspan class="cls-6" x="40.07" y="0">Т</tspan><tspan x="50.73" y="0">Ы</tspan></text><text class="cls-2" transform="translate(101.51 38.41)"><tspan class="cls-3">С</tspan><tspan class="cls-7" x="12.17" y="0">ТР</tspan><tspan class="cls-8" x="34.48" y="0">О</tspan><tspan class="cls-9" x="49.19" y="0">Е</tspan><tspan x="59.85" y="0">Н</tspan><tspan class="cls-8" x="74.04" y="0">И</tspan><tspan x="89.25" y="0">Й</tspan></text></g></g></svg>