<svg xmlns="http://www.w3.org/2000/svg" viewBox="0 0 61.1 49.99"><defs><style>.cls-1{fill:#f8ab49;}.cls-2{fill:#4d4d4d;}.cls-3{fill:#fc7a51;}.cls-4{fill:#f4d521;}.cls-5{fill:#ffc95c;}.cls-6{fill:#a4d7f4;}.cls-7{fill:#5090cd;}.cls-8{fill:#004172;}.cls-9{fill:#0157a5;}.cls-10{fill:#e6e6e6;}.cls-11{fill:#fb0;}.cls-12{fill:gray;}.cls-13{fill:#999;}</style></defs><title>comm</title><g id="Слой_2" data-name="Слой 2"><g id="Layer_1" data-name="Layer 1"><path class="cls-1" d="M31.38,11V26.49a1.81,1.81,0,0,1-1.81,1.81H1.81A1.81,1.81,0,0,1,0,26.49V11A1.81,1.81,0,0,1,1.81,9.16H29.57A1.81,1.81,0,0,1,31.38,11"/><rect class="cls-2" y="13.23" width="31.38" height="4.68"/><path class="cls-3" d="M4,23.61a3.77,3.77,0,0,0,1,2.52H4.71a2.54,2.54,0,1,1,0-5.07H5a3.76,3.76,0,0,0-1,2.52"/><path class="cls-4" d="M10.3,23.61a2.54,2.54,0,1,1-2.54-2.53,2.53,2.53,0,0,1,2.54,2.53"/><rect class="cls-5" x="21.92" y="18.44" width="39.18" height="21.09"/><path class="cls-1" d="M58.86,24.37v9.31a3.68,3.68,0,0,0-3.68,3.62H27.84a3.68,3.68,0,0,0-3.68-3.62V24.37a3.68,3.68,0,0,0,3.68-3.68H55.17a3.68,3.68,0,0,0,3.68,3.68"/><path class="cls-6" d="M26.27,38.1a6.5,6.5,0,0,1-6.5,6.5l-.48,0a6.5,6.5,0,0,1,0-13l.48,0a6.5,6.5,0,0,1,6.5,6.5"/><path class="cls-7" d="M24,38.1a4.22,4.22,0,1,1-4.22-4.21A4.22,4.22,0,0,1,24,38.1"/><path class="cls-8" d="M46.66,3.22V46.76A3.23,3.23,0,0,1,43.44,50H22.51a3.23,3.23,0,0,1-3.23-3.23V3.22A3.23,3.23,0,0,1,22.51,0H43.44a3.22,3.22,0,0,1,3.23,3.22"/><rect class="cls-9" x="20.58" y="6.6" width="24.8" height="35.91"/><path class="cls-5" d="M35.53,46.34A2.55,2.55,0,1,1,33,43.79a2.55,2.55,0,0,1,2.55,2.55"/><path class="cls-10" d="M42.75,15.8H23.26a.42.42,0,0,1-.42-.42V10.09a.42.42,0,0,1,.42-.42H42.75a.42.42,0,0,1,.42.42v5.29a.42.42,0,0,1-.42.42"/><path class="cls-8" d="M42.75,22.08H40a.42.42,0,0,1-.42-.42V18.91a.42.42,0,0,1,.42-.42h2.75a.42.42,0,0,1,.42.42v2.75a.42.42,0,0,1-.42.42"/><path class="cls-11" d="M42.75,27.46H40a.42.42,0,0,1-.42-.42V24.29a.42.42,0,0,1,.42-.42h2.75a.42.42,0,0,1,.42.42V27a.42.42,0,0,1-.42.42"/><path class="cls-8" d="M26,22.08H23.26a.42.42,0,0,1-.42-.42V18.91a.42.42,0,0,1,.42-.42H26a.42.42,0,0,1,.42.42v2.75a.42.42,0,0,1-.42.42"/><path class="cls-6" d="M31.59,22.08H28.84a.42.42,0,0,1-.42-.42V18.91a.42.42,0,0,1,.42-.42h2.75a.42.42,0,0,1,.42.42v2.75a.42.42,0,0,1-.42.42"/><path class="cls-12" d="M37.17,22.08H34.42a.42.42,0,0,1-.42-.42V18.91a.42.42,0,0,1,.42-.42h2.75a.42.42,0,0,1,.42.42v2.75a.42.42,0,0,1-.42.42"/><path class="cls-11" d="M26,27.46H23.26a.42.42,0,0,1-.42-.42V24.29a.42.42,0,0,1,.42-.42H26a.42.42,0,0,1,.42.42V27a.42.42,0,0,1-.42.42"/><path class="cls-6" d="M31.59,27.46H28.84a.42.42,0,0,1-.42-.42V24.29a.42.42,0,0,1,.42-.42h2.75a.42.42,0,0,1,.42.42V27a.42.42,0,0,1-.42.42"/><path class="cls-12" d="M37.17,27.46H34.42A.42.42,0,0,1,34,27V24.29a.42.42,0,0,1,.42-.42h2.75a.42.42,0,0,1,.42.42V27a.42.42,0,0,1-.42.42"/><path class="cls-12" d="M26,32.95H23.26a.42.42,0,0,1-.42-.42V29.78a.42.42,0,0,1,.42-.42H26a.42.42,0,0,1,.42.42v2.75a.42.42,0,0,1-.42.42"/><path class="cls-11" d="M31.59,32.95H28.84a.42.42,0,0,1-.42-.42V29.78a.42.42,0,0,1,.42-.42h2.75a.42.42,0,0,1,.42.42v2.75a.42.42,0,0,1-.42.42"/><path class="cls-8" d="M37.17,32.95H34.42a.42.42,0,0,1-.42-.42V29.78a.42.42,0,0,1,.42-.42h2.75a.42.42,0,0,1,.42.42v2.75a.42.42,0,0,1-.42.42"/><path class="cls-6" d="M42.75,32.95H40a.42.42,0,0,1-.42-.42V29.78a.42.42,0,0,1,.42-.42h2.75a.42.42,0,0,1,.42.42v2.75a.42.42,0,0,1-.42.42"/><rect class="cls-13" x="37.04" y="13.56" width="4.34" height="1.05"/></g></g></svg>