<svg xmlns="http://www.w3.org/2000/svg" viewBox="0 0 52.67 31.59"><defs><style>.cls-1{fill:#004172;}.cls-2{fill:#0157a5;}.cls-3{fill:#fb0;}.cls-4{fill:#f2f0d5;}</style></defs><title>courier</title><g id="Слой_2" data-name="Слой 2"><g id="Layer_1" data-name="Layer 1"><polygon class="cls-1" points="42.82 6.72 23.76 6.72 23.76 22.65 42.82 22.65 48.71 15.19 42.82 6.72"/><polygon class="cls-2" points="49.96 15.19 25.14 15.19 25.14 22.65 51.2 22.65 49.96 15.19"/><rect class="cls-3" x="0.82" width="34.52" height="22.65"/><path class="cls-2" d="M22.17,3.22H.82V6.35H22.17ZM18.52,7.64H.82v3.13H18.52V7.64ZM15.1,11.79H.82v3.13H15.1ZM.82,16.3v3.13H25.67V16.3Z"/><polygon class="cls-4" points="41.73 8.81 36.89 8.81 36.89 13.81 45.21 13.81 41.73 8.81"/><rect class="cls-1" y="22.65" width="52.67" height="2.21"/><rect class="cls-2" x="0.52" y="24.86" width="51.63" height="2.58"/><path class="cls-1" d="M41.39,20.81a5.39,5.39,0,1,0,5.39,5.39A5.39,5.39,0,0,0,41.39,20.81Zm-28.05,0a5.39,5.39,0,1,0,5.39,5.39A5.39,5.39,0,0,0,13.34,20.81Z"/><path class="cls-4" d="M13.34,23.94A2.26,2.26,0,1,0,15.6,26.2,2.25,2.25,0,0,0,13.34,23.94Zm28.05,0a2.26,2.26,0,1,0,2.26,2.25A2.26,2.26,0,0,0,41.39,23.94Z"/></g></g></svg>