<svg xmlns="http://www.w3.org/2000/svg" viewBox="0 0 74.09 43.31"><defs><style>.cls-1{fill:#fb0;}.cls-2,.cls-9{fill:#0157a5;}.cls-3{fill:#ededee;}.cls-4{fill:#ccc;}.cls-5{fill:#d9d9d9;}.cls-6{fill:#ee8440;}.cls-7{fill:#f8ab49;}.cls-8{fill:#df7f3f;}.cls-9{fill-rule:evenodd;}</style></defs><title>department</title><g id="Слой_2" data-name="Слой 2"><g id="Layer_1" data-name="Layer 1"><polygon class="cls-1" points="51.46 19.56 34.18 2.37 17.72 19.56 2.79 19.56 2.79 40.52 65.66 40.52 65.66 19.56 51.46 19.56"/><polygon class="cls-2" points="60.07 8.38 41.91 8.38 34.23 0 26.54 8.38 8.38 8.38 0 19.56 18.16 19.56 34.23 2.79 50.29 19.56 68.56 19.56 60.07 8.38"/><path class="cls-2" d="M67.76,39.12h4.19v1.4h.7V32.25a2.8,2.8,0,1,0-5.59,0v8.26h.7Z"/><rect class="cls-3" x="68.46" y="30.74" width="2.79" height="2.1"/><rect class="cls-4" x="1.45" y="40.51" width="72.65" height="2.79"/><rect class="cls-5" x="27.24" y="39.12" width="13.97" height="1.4"/><rect class="cls-5" x="26.54" y="40.51" width="15.37" height="1.4"/><rect class="cls-5" x="25.84" y="41.91" width="16.77" height="1.4"/><rect class="cls-4" x="27.24" y="40.17" width="13.97" height="0.35"/><rect class="cls-4" x="26.54" y="41.56" width="15.37" height="0.35"/><rect class="cls-4" x="25.84" y="42.96" width="16.77" height="0.35"/><rect class="cls-6" x="67.76" y="33.53" width="4.19" height="1.4"/><path class="cls-2" d="M28.64,39.12V29.34a5.59,5.59,0,0,1,5.59-5.59h0a5.59,5.59,0,0,1,5.59,5.59v9.78Z"/><path class="cls-1" d="M34.23,24.45a4.9,4.9,0,0,0-4.89,4.89v9.78h1.4l6.13-13.89A4.86,4.86,0,0,0,34.23,24.45Z"/><path class="cls-7" d="M36.86,25.23,30.74,39.12h8.38V29.34A4.88,4.88,0,0,0,36.86,25.23Z"/><rect class="cls-2" x="33.53" y="24.1" width="1.4" height="15.02"/><rect class="cls-2" x="28.99" y="28.64" width="10.48" height="0.7"/><rect class="cls-2" x="28.64" y="35.63" width="11.18" height="0.7"/><polygon class="cls-1" points="14.67 35.62 14.67 31.34 12.9 35.62 14.67 35.62"/><rect class="cls-7" x="9.78" y="25.15" width="4.89" height="4.89"/><rect class="cls-1" x="15.37" y="30.73" width="4.89" height="4.89"/><polygon class="cls-7" points="9.78 30.73 9.78 35.62 12.9 35.62 14.67 31.34 14.67 30.73 9.78 30.73"/><polygon class="cls-1" points="15.37 29.65 15.37 30.04 20.26 30.04 20.26 25.15 17.24 25.15 15.37 29.65"/><polygon class="cls-7" points="15.37 25.15 15.37 29.65 17.24 25.15 15.37 25.15"/><polygon class="cls-7" points="53.09 35.62 53.09 31.34 50.94 35.62 53.09 35.62"/><rect class="cls-1" x="48.2" y="25.15" width="4.89" height="4.89"/><rect class="cls-7" x="53.79" y="30.73" width="4.89" height="4.89"/><polygon class="cls-1" points="48.2 30.73 48.2 35.62 50.94 35.62 53.09 31.34 53.09 30.73 48.2 30.73"/><polygon class="cls-7" points="53.79 29.65 53.79 30.04 58.68 30.04 58.68 25.15 55.83 25.15 53.79 29.65"/><polygon class="cls-1" points="53.79 25.15 53.79 29.65 55.83 25.15 53.79 25.15"/><rect class="cls-8" x="61.47" y="35.63" width="2.79" height="1.4"/><rect class="cls-8" x="60.07" y="33.53" width="2.79" height="1.4"/><path class="cls-9" d="M42.7,16.52c-1.57.1-3.13.21-5.27.32s-4.86.24-6.9.19a30.69,30.69,0,0,1-4.78-.51,5.16,5.16,0,0,0,1.71,1.09,10.23,10.23,0,0,0,3.72.5,48.37,48.37,0,0,0,6-.59c2-.31,3.75-.65,5.48-1"/><path class="cls-9" d="M42.31,17.66c-2.3.4-4.61.79-6.18,1s-2.41.36-3.23.41a15.55,15.55,0,0,1-2.27,0A12.89,12.89,0,0,1,29,18.82h0a10.69,10.69,0,0,0,2.13.76,14.46,14.46,0,0,0,3.26.32,30.75,30.75,0,0,0,3.35-.28l1.86-.23a3.66,3.66,0,0,0-.6,1.18A2.39,2.39,0,0,0,39,21.84a2,2,0,0,0,.53.76,11.53,11.53,0,0,1,.6-1.9,9.83,9.83,0,0,1,1.06-1.77,15.27,15.27,0,0,1,1.07-1.27"/></g></g></svg>