<?xml version="1.0" encoding="utf-8"?>
<!-- Generator: Adobe Illustrator 18.1.1, SVG Export Plug-In . SVG Version: 6.00 Build 0)  -->
<svg version="1.1" id="Layer_1" xmlns="http://www.w3.org/2000/svg" xmlns:xlink="http://www.w3.org/1999/xlink" x="0px" y="0px"
	 viewBox="1081 213.9 566.8 701.8" enable-background="new 1081 213.9 566.8 701.8" xml:space="preserve">
<path fill="#FFC95C" d="M1426.9,213.9H1097c-8.4,0-16,6.8-16,16v603.3c0,8.4,6.8,16,16,16h433.7c8.4,0,16-6.8,16-16V333.7
	c0-4.2-1.7-8.4-5.1-11l-102.9-104.6C1435.4,215.6,1431.1,213.9,1426.9,213.9z"/>
<path fill="#F8AB49" d="M1449.7,327h92c1.7,0,2.5-2.5,1.7-3.4L1437,217.3c-1.7-1.7-3.4,0-3.4,1.7v92
	C1433.7,319.4,1440.4,327,1449.7,327z"/>
<rect x="1119" y="271.3" fill="#F8AB49" width="232" height="32.9"/>
<g>
	<g>
		<rect x="1119" y="379.3" fill="#F8AB49" width="389" height="16"/>
		<rect x="1119" y="424" fill="#F8AB49" width="389" height="16"/>
		<rect x="1119" y="469.5" fill="#F8AB49" width="283.5" height="16"/>
		<rect x="1119" y="515.1" fill="#F8AB49" width="351" height="16"/>
		<rect x="1119" y="560.7" fill="#F8AB49" width="374.6" height="16"/>
		<rect x="1119" y="606.2" fill="#F8AB49" width="283.5" height="16"/>
		<rect x="1119" y="651" fill="#F8AB49" width="389" height="16"/>
		<rect x="1120.4" y="698" fill="#F8AB49" width="389" height="16"/>
		<rect x="1120.4" y="743.5" fill="#F8AB49" width="283.5" height="16"/>
	</g>
</g>
<g>
	<g>
		<g>
			<circle fill="#004172" cx="1507.9" cy="775.8" r="139.8"/>
			<g>
				<g>
					<path fill="#0157A5" d="M1616.4,781.6c-6.2-1.3-11.9,2.8-13.1,8.8c-9.2,46.6-49.2,80.5-95.3,80.5c-37.5,0-71-22.4-87.1-55.9
						h59.2v-22.4h-67.1h-11.2h-11.2v89.5h22.4v-37.4c22.1,29.7,56.9,48.6,95.1,48.6c56.7,0,106-41.4,117.2-98.5
						C1626.4,788.7,1622.4,782.8,1616.4,781.6z"/>
					<path fill="#0157A5" d="M1603,669.5v37.4c-22.1-29.7-56.9-48.6-95.1-48.6c-56.7,0-106,41.4-117.2,98.5
						c-1.2,6.1,2.8,11.9,8.8,13.1c6.2,1.3,11.9-2.8,13.1-8.8c9.2-46.6,49.2-80.5,95.3-80.5c37.5,0,71,22.4,87.1,55.9h-59.2V759h67.1
						h11.2h11.2v-89.5H1603z"/>
				</g>
			</g>
		</g>
	</g>
</g>
</svg>
