<svg xmlns="http://www.w3.org/2000/svg" viewBox="0 0 67.94 47.77"><defs><style>.cls-1{fill:#0157a5;}.cls-2{fill:#ffc95c;}.cls-3{fill:#004172;}.cls-4{fill:#f2f2f2;}.cls-5{fill:#ccc;}.cls-6{fill:#e6e6e6;}</style></defs><title>email</title><g id="Слой_2" data-name="Слой 2"><g id="Layer_1" data-name="Layer 1"><path class="cls-1" d="M63.3,42.15H4.65A.61.61,0,0,1,4,41.54V.61A.61.61,0,0,1,4.65,0H63.3a.61.61,0,0,1,.61.61V41.54A.61.61,0,0,1,63.3,42.15Z"/><rect class="cls-2" x="8.16" y="4.11" width="51.64" height="33.92"/><path class="cls-1" d="M67.22,47.77H.72A.72.72,0,0,1,0,47v-4.9H67.94V47A.72.72,0,0,1,67.22,47.77Z"/><polygon class="cls-3" points="43.1 42.15 24.84 42.15 26.44 44.63 41.5 44.63 43.1 42.15"/><path class="cls-4" d="M48.56,30.87H19.38a.57.57,0,0,1-.58-.58V11.85a.57.57,0,0,1,.58-.58H48.56a.57.57,0,0,1,.58.58V30.3A.58.58,0,0,1,48.56,30.87Z"/><path class="cls-5" d="M48.2,30.42a2.22,2.22,0,0,1-1.35.45H21.07a2.29,2.29,0,0,1-1.46-.52l12.1-7.82L34,21.09l2.23,1.46Z"/><path class="cls-6" d="M48.42,11.91,36.21,22.53,34,24.48l-2.25-2L19.51,11.89a2.2,2.2,0,0,1,1.57-.63H46.85A2.33,2.33,0,0,1,48.42,11.91Z"/></g></g></svg>