<svg xmlns="http://www.w3.org/2000/svg" viewBox="0 0 69.7 60.12"><defs><style>.cls-1{fill:#ffc95c;}.cls-2{fill:#f8ab49;}.cls-3{fill:#fff;}.cls-4{fill:#64798a;}.cls-5{fill:#e56353;}.cls-10,.cls-6{fill:#0157a5;}.cls-7{fill:#004172;}.cls-8{fill:#3a556a;}.cls-9{fill:#2f4859;}.cls-10{fill-rule:evenodd;}</style></defs><title>ems</title><g id="Слой_2" data-name="Слой 2"><g id="Layer_1" data-name="Layer 1"><path class="cls-1" d="M55,10.84,24.82,19.31a.84.84,0,0,0-.58,1L32.5,49.8a.84.84,0,0,0,1,.58L63.7,41.92a.84.84,0,0,0,.58-1L56,11.43A.84.84,0,0,0,55,10.84Z"/><path class="cls-2" d="M37.05,15.88l2,7c.46,0,.95.18,1.33-.06.23-.15.37-.41.59-.58A2.43,2.43,0,0,1,42.34,22a10.27,10.27,0,0,0,2.41-.57l-2-7.11Z"/><rect class="cls-3" x="51.38" y="34.58" width="9.59" height="7.03" transform="translate(-8.2 16.59) rotate(-15.67)"/><polygon class="cls-4" points="51.37 36.56 51.62 36.49 53.11 41.82 52.87 41.89 51.37 36.56"/><rect class="cls-4" x="52.71" y="36.23" width="0.43" height="5.54" transform="translate(-8.65 15.98) rotate(-15.89)"/><rect class="cls-4" x="53.32" y="36.08" width="0.26" height="5.54" transform="translate(-8.52 15.92) rotate(-15.71)"/><polygon class="cls-4" points="53.18 36.05 53.43 35.98 54.92 41.31 54.68 41.38 53.18 36.05"/><polygon class="cls-4" points="54 35.82 54.33 35.73 55.82 41.06 55.49 41.16 54 35.82"/><polygon class="cls-4" points="53.58 35.94 53.82 35.87 55.32 41.2 55.07 41.27 53.58 35.94"/><rect class="cls-4" x="55.28" y="35.53" width="0.26" height="5.54" transform="matrix(0.96, -0.27, 0.27, 0.96, -8.19, 16.1)"/><polygon class="cls-4" points="55 35.54 55.25 35.47 56.74 40.81 56.49 40.88 55 35.54"/><polygon class="cls-4" points="55.6 35.37 55.85 35.3 57.34 40.64 57.1 40.71 55.6 35.37"/><rect class="cls-4" x="56.95" y="35.07" width="0.26" height="5.54" transform="translate(-8.11 16.86) rotate(-15.71)"/><polygon class="cls-4" points="56.81 35.03 57.23 34.92 58.72 40.25 58.31 40.37 56.81 35.03"/><polygon class="cls-4" points="57.41 34.86 57.66 34.8 59.16 40.13 58.91 40.2 57.41 34.86"/><rect class="cls-4" x="58.76" y="34.56" width="0.26" height="5.54" transform="translate(-7.95 17.48) rotate(-15.83)"/><polygon class="cls-4" points="58.62 34.53 58.87 34.45 60.37 39.79 60.12 39.86 58.62 34.53"/><polygon class="cls-4" points="59.23 34.35 59.48 34.29 60.97 39.62 60.72 39.69 59.23 34.35"/><polygon class="cls-5" points="52.51 40.65 60.62 38.37 60.7 38.65 52.59 40.93 52.51 40.65"/><path class="cls-6" d="M69.7,45.71,35.26,55.37a6.2,6.2,0,0,1-7.63-4.29L14.42,4a.9.9,0,0,0-1.11-.62L8.62,4.71,7.71,1.48,12.4.16a4.27,4.27,0,0,1,5.25,3l13.2,47.06a2.83,2.83,0,0,0,3.49,2l34.44-9.66Z"/><path class="cls-7" d="M1.81,2.41a2.48,2.48,0,0,0-1.71,3h0A2.48,2.48,0,0,0,3.14,7.18l7-2L8.82.45Z"/><circle class="cls-8" cx="30.96" cy="53.97" r="6.16" transform="matrix(0.96, -0.27, 0.27, 0.96, -13.43, 10.37)"/><circle class="cls-4" cx="30.96" cy="53.96" r="3.95" transform="translate(-13.42 10.36) rotate(-15.66)"/><circle class="cls-9" cx="30.96" cy="53.97" r="2.33" transform="matrix(0.96, -0.27, 0.27, 0.96, -13.41, 10.35)"/><path class="cls-10" d="M38,29.46h0l-2.3.67c0,.47,0,.94,0,1.41l2.31-.67.08,2.56h0l-2.3.67c0,.48,0,1,0,1.43l2.32-.67.08,2.58h0L33.14,39l0-1.24,4.58-1.35V36l-4.6,1.33c0-.48,0-1,0-1.46l2.21-.65v-.44L33,35.38,33,34l4.58-1.34c0-.15,0-.31,0-.46L33,33.49c0-.47,0-.94,0-1.42l2.21-.64V31l-2.21.64,0-1.42,4.58-1.34c0-.15,0-.3,0-.46l-4.58,1.33,0-1.41,5.15-1.5L38,29.46Z"/><path class="cls-10" d="M44,29.39h0l.12-.59L47.9,27.7v-.44l-3.67,1.06.34-1.51,3.28-1c0-.16,0-.31,0-.46l-3.14.91L45,24.78l3.16-.92.35,10.62-2.43.71c0-.41,0-.83,0-1.25l2-.59v-.43l-2,.58L46,32.06l2-.6A4.15,4.15,0,0,0,48,31l-2,.58-.06-1.42,2-.59c0-.15,0-.31,0-.46l-2.07.6c0-.25,0-.5-.05-.74l-1.25,6.64-.91.27-.34-1.15,1-.29c0-.16.06-.31.09-.47l-1.2.34L42.82,33l1.89-.55c0-.15.06-.31.09-.47l-2.09.61-.39-1.32,2.77-.81c0-.17.07-.33.09-.49l-3,.86c-.07-.24-.14-.49-.21-.73l.18,6.28-2.45.71,0-1.24,1.86-.55c0-.14,0-.29,0-.44l-1.86.54,0-1.46,1.85-.54c0-.15,0-.29,0-.44l-1.85.53c0-.47,0-.95,0-1.43l1.85-.54c0-.15,0-.31,0-.45l-1.85.53,0-1.42L43.29,29l-.11-.4-3.71,1.07,0-1.4,3.27-1-.13-.43-3.15.91,0-1.41,3.21-.94L44,29.39Z"/><path class="cls-10" d="M55.47,23.14,55.52,25,53,25.76c0-.21,0-.43,0-.65l-.82.23c0,.46,0,.94,0,1.4l1.8-.51,1.57.77.14,4.11L54,32.87l-2.42.7-1.89-.71h0l5.46-1.59v-.43l-5.47,1.59,0-1.45,2.64-.78,0,.54.81-.23,0-.55,2-.58c0-.15,0-.29,0-.44l-2,.58c0-.13,0-.27,0-.42l-2,.59L49.89,29l5.18-1.51c0-.15,0-.31,0-.46L49.6,28.63c0-.48,0-.94,0-1.41l2.16-.64c0-.14,0-.3,0-.44l-2.18.63c0-.47,0-.94,0-1.4L55,23.77l0-.47-5.47,1.59,1.83-1.95,2.4-.7,1.77.9Z"/></g></g></svg>