<svg width="11" height="20" viewBox="0 0 11 20" version="1.1" xmlns="http://www.w3.org/2000/svg" xmlns:xlink="http://www.w3.org/1999/xlink">
<title>Vector</title>
<desc>Created using Figma</desc>
<g id="Canvas" transform="translate(389 -1829)">
<g id="Vector">
<use xlink:href="#path0_fill" transform="translate(-389 1829)" fill="#333333"/>
</g>
</g>
<defs>
<path id="path0_fill" d="M 0.472059 10.5803L 2.71894 10.5803L 2.71894 19.6503C 2.71894 19.8824 2.83849 20 3.07452 20L 6.85713 20C 7.09316 20 7.2127 19.8824 7.2127 19.6503L 7.2127 10.6978L 9.81516 10.6978C 9.9347 10.6978 10.1707 10.5803 10.1707 10.4657L 10.5263 7.09269C 10.5263 6.97513 10.5263 6.86059 10.4068 6.86059C 10.2872 6.74303 10.2872 6.74303 10.1707 6.74303L 7.09622 6.74303L 7.09622 4.65109C 7.09622 4.06933 7.45179 3.71967 8.15988 3.71967C 8.27943 3.71967 10.0512 3.71967 10.0512 3.71967C 10.2872 3.71967 10.4068 3.60211 10.4068 3.37001L 10.4068 0.349661C 10.4068 0.117559 10.2872 -7.35918e-07 10.0512 -7.35918e-07L 7.33225 -7.35918e-07L 7.2127 -7.35918e-07C 6.74064 -7.35918e-07 5.08537 0.117558 3.90215 1.27807C 2.48291 2.55614 2.71894 4.06933 2.71894 4.30143L 2.71894 6.74303L 0.355579 6.74303C 0.119549 6.74303 -1.49674e-06 6.86059 -1.49674e-06 7.09269L -1.49674e-06 10.3482C 0.116481 10.3482 0.236029 10.5803 0.472059 10.5803Z"/>
</defs>
</svg>
