<svg xmlns="http://www.w3.org/2000/svg" viewBox="0 0 66.49 71.5"><defs><style>.cls-1{fill:#ffc95c;}.cls-2{fill:#f8ab49;}.cls-3{fill:#3a556a;}.cls-4{fill:#e1e6e9;}.cls-5{fill:#ebf0f3;}.cls-6{fill:#d5d6db;}.cls-7{fill:#0157a5;}</style></defs><title>hmail</title><g id="Слой_2" data-name="Слой 2"><g id="Layer_1" data-name="Layer 1"><path class="cls-1" d="M66.49,29.13V68.68a2.83,2.83,0,0,1-2.82,2.82H2.82A2.83,2.83,0,0,1,0,68.68V29.13Z"/><path class="cls-2" d="M65.79,70.54a2.79,2.79,0,0,1-2.11,1H2.82a2.78,2.78,0,0,1-2.11-1L33.25,50.31Z"/><polygon class="cls-3" points="66.49 29.13 57.55 36.38 53.79 39.44 33.25 56.12 12.71 39.44 8.95 36.38 0 29.13 33.25 0 66.49 29.13"/><polygon class="cls-4" points="20.16 4.97 8.95 16.18 8.95 36.38 12.71 39.44 33.25 56.12 53.79 39.44 57.55 36.38 57.55 4.97 20.16 4.97"/><polygon class="cls-5" points="20.16 16.18 20.16 4.97 8.95 16.18 20.16 16.18"/><path class="cls-6" d="M51.72,10.47H28.34a1,1,0,1,0,0,1.91H51.72a1,1,0,1,0,0-1.91Z"/><path class="cls-6" d="M46.36,37.25H20.13a1,1,0,1,0,0,1.91H46.36a1,1,0,0,0,0-1.91Z"/><path class="cls-7" d="M33.08,33.53a8.19,8.19,0,0,1-6-2.38,8,8,0,0,1-2.42-6,8.67,8.67,0,0,1,8.65-8.66,8.08,8.08,0,0,1,6,2.54,8.59,8.59,0,0,1,2.46,6.21A7,7,0,0,1,41,29a2.63,2.63,0,0,1-2.32,1.42A2.08,2.08,0,0,1,37,29.68a3.18,3.18,0,0,1-.66-2A4,4,0,0,1,32.5,30.4a4.33,4.33,0,0,1-3.23-1.47,5.2,5.2,0,0,1-1.39-3.72,5.61,5.61,0,0,1,1.32-3.79,4.38,4.38,0,0,1,3.49-1.53,3.62,3.62,0,0,1,1.85.51A3.22,3.22,0,0,1,35.8,21.6V20.18h2v7.43c0,1,.39,1.49,1.17,1.49q.66,0,1.2-1a5.19,5.19,0,0,0,.54-2.54,8.5,8.5,0,0,0-2.05-5.77,6.7,6.7,0,0,0-5.3-2.36,7.53,7.53,0,0,0-5.53,2.28,7.44,7.44,0,0,0-2.28,5.45,7.12,7.12,0,0,0,2.15,5.29,7.28,7.28,0,0,0,5.32,2.12A5.52,5.52,0,0,0,37,31.31l.47.79a5.65,5.65,0,0,1-2,1A7.93,7.93,0,0,1,33.08,33.53Zm2.75-8.42A3.25,3.25,0,0,0,35,22.84a2.71,2.71,0,0,0-2.11-.89,2.62,2.62,0,0,0-2.09.91A3.33,3.33,0,0,0,30,25.11a3.64,3.64,0,0,0,.78,2.32,2.78,2.78,0,0,0,4.23,0A3.62,3.62,0,0,0,35.82,25.11Z"/></g></g></svg>