<svg width="20" height="20" viewBox="0 0 20 20" version="1.1" xmlns="http://www.w3.org/2000/svg" xmlns:xlink="http://www.w3.org/1999/xlink">
<title>Group 2</title>
<desc>Created using Figma</desc>
<g id="Canvas" transform="translate(432 -1829)">
<g id="Group 2">
<g id="Rectangle 5">
<use xlink:href="#path0_fill" transform="translate(-432 1829)" fill="#333333"/>
</g>
<g id="Group">
<g id="Vector">
<use xlink:href="#path1_fill" transform="translate(-429.143 1831.86)" fill="#E0E0E0"/>
</g>
<g id="Vector">
<use xlink:href="#path2_fill" transform="translate(-425.748 1835.33)" fill="#E0E0E0"/>
</g>
<g id="Vector">
<use xlink:href="#path3_fill" transform="translate(-419.197 1834.46)" fill="#E0E0E0"/>
</g>
</g>
</g>
</g>
<defs>
<path id="path0_fill" d="M 0 7C 0 3.13401 3.13401 0 7 0L 13 0C 16.866 0 20 3.13401 20 7L 20 13C 20 16.866 16.866 20 13 20L 7 20C 3.13401 20 0 16.866 0 13L 0 7Z"/>
<path id="path1_fill" d="M 10.0237 0L 4.26198 0C 1.89467 0 -9.99061e-07 1.89467 -9.99061e-07 4.26198L -9.99061e-07 10.0237C -9.99061e-07 12.391 1.89467 14.2857 4.26198 14.2857L 10.0237 14.2857C 12.391 14.2857 14.2857 12.391 14.2857 10.0237L 14.2857 4.26198C 14.2857 1.97242 12.391 0 10.0237 0ZM 12.8657 10.1015C 12.8657 11.679 11.6033 12.9435 10.0237 12.9435L 4.26198 12.9435C 2.68445 12.9435 1.41998 11.6811 1.41998 10.1015L 1.41998 4.33973C 1.41998 2.7622 2.68241 1.49773 4.26198 1.49773L 10.0237 1.49773C 11.6013 1.49773 12.8657 2.76016 12.8657 4.33973L 12.8657 10.1015Z"/>
<path id="path2_fill" d="M 3.70954 2.49765e-07C 1.65732 2.49765e-07 -4.99531e-07 1.65732 -4.99531e-07 3.70954C -4.99531e-07 5.76175 1.65732 7.41908 3.70954 7.41908C 5.76175 7.41908 7.41908 5.76175 7.41908 3.70954C 7.41908 1.65732 5.76175 2.49765e-07 3.70954 2.49765e-07ZM 3.70954 5.9991C 2.44711 5.9991 1.41998 4.97401 1.41998 3.70954C 1.41998 2.44711 2.44506 1.41998 3.70954 1.41998C 4.97197 1.41998 5.9991 2.44506 5.9991 3.70954C 5.9991 4.97197 4.97197 5.9991 3.70954 5.9991Z"/>
<path id="path3_fill" d="M 0.867536 1.73507C 1.34666 1.73507 1.73507 1.34666 1.73507 0.867537C 1.73507 0.38841 1.34666 0 0.867536 0C 0.388408 0 0 0.38841 0 0.867537C 0 1.34666 0.388408 1.73507 0.867536 1.73507Z"/>
</defs>
</svg>
