<svg xmlns="http://www.w3.org/2000/svg" viewBox="0 0 71.28 67.21"><defs><style>.cls-1{fill:#ffc95c;}.cls-2{fill:#004172;}.cls-3{fill:#0157a5;}.cls-4{fill:#ebf0f3;}.cls-5{fill:#f8ab49;}</style></defs><title>letters</title><g id="Слой_2" data-name="Слой 2"><g id="Layer_1" data-name="Layer 1"><path class="cls-1" d="M62.18,0H37.37a2.85,2.85,0,0,0-2.85,2.85v49.3H68.43a2.85,2.85,0,0,0,2.85-2.85V9.1Z"/><path class="cls-2" d="M58.32,35V64a3.22,3.22,0,0,1-3.21,3.21H3.21A3.23,3.23,0,0,1,0,64V35a3.29,3.29,0,0,1,.38-1.51,3.24,3.24,0,0,1,2.84-1.7h51.9A3.25,3.25,0,0,1,58,33.53,3.29,3.29,0,0,1,58.32,35Z"/><path class="cls-3" d="M58,65.5a3.21,3.21,0,0,1-2.84,1.71H3.21A3.21,3.21,0,0,1,.38,65.5l23.51-16,5.28-3.6,5.27,3.6Z"/><path class="cls-2" d="M58,33.53l-23.51,17L31.7,52.39a4.29,4.29,0,0,1-5.07,0l-2.74-1.85L.38,33.53a3.24,3.24,0,0,1,2.84-1.7h51.9A3.25,3.25,0,0,1,58,33.53Z"/><path class="cls-3" d="M58,33.53,34.44,49.47,31.7,51.32a4.29,4.29,0,0,1-5.07,0l-2.74-1.86L.38,33.53a3.24,3.24,0,0,1,2.84-1.7h51.9A3.25,3.25,0,0,1,58,33.53Z"/><polygon class="cls-4" points="62.18 9.1 71.28 9.1 62.18 0 62.18 9.1"/><rect class="cls-5" x="37.23" y="7.2" width="22.81" height="1.9"/><rect class="cls-5" x="37.23" y="13.17" width="31.34" height="1.9"/><rect class="cls-5" x="37.23" y="19.15" width="31.34" height="1.9"/><rect class="cls-5" x="37.23" y="25.13" width="31.34" height="1.9"/></g></g></svg>