<svg xmlns="http://www.w3.org/2000/svg" viewBox="0 0 109.28 12.68"><defs><style>.cls-1,.cls-2{fill:#333;}.cls-2{fill-rule:evenodd;}</style></defs><title>logo_gray</title><g id="Слой_2" data-name="Слой 2"><g id="Layer_1" data-name="Layer 1"><path class="cls-1" d="M38.93,5.74h.77a9.71,9.71,0,0,0,2.71-.25,3,3,0,0,0,1.23-.79,2.59,2.59,0,0,0,.64-1.2,1.11,1.11,0,0,0,0-.72.82.82,0,0,0-.46-.41,5.53,5.53,0,0,0-1.55-.13h-1.8Zm-2.87,6.71H33.54L38.78.22h5a5.17,5.17,0,0,1,2,.31,1.85,1.85,0,0,1,1,1,2.92,2.92,0,0,1,.07,1.72,5.66,5.66,0,0,1-.75,1.8A5.74,5.74,0,0,1,44.9,6.5a5.08,5.08,0,0,1-1.3.8,7.13,7.13,0,0,1-1.71.41,19.73,19.73,0,0,1-2.23.08H38Z"/><path class="cls-1" d="M49.28,7.61a2.63,2.63,0,0,0,.3,2.12,2.06,2.06,0,0,0,1.83.85,4,4,0,0,0,2.1-.67,6.79,6.79,0,0,0,2-2,7.92,7.92,0,0,0,1.2-2.67,2.77,2.77,0,0,0-.28-2.27,2.07,2.07,0,0,0-1.8-.82,4.49,4.49,0,0,0-3.37,1.72,8.34,8.34,0,0,0-2,3.78m-2.5,0a10.26,10.26,0,0,1,.83-2.29,10.92,10.92,0,0,1,1.91-2.8A8.63,8.63,0,0,1,52.12.69,7.42,7.42,0,0,1,55.29,0a4,4,0,0,1,3.36,1.41,4.36,4.36,0,0,1,.58,3.75A10.07,10.07,0,0,1,57.5,8.91a9.39,9.39,0,0,1-3.08,2.79,7.64,7.64,0,0,1-3.75,1A4.25,4.25,0,0,1,48,11.9,3.21,3.21,0,0,1,46.75,10a5.58,5.58,0,0,1,0-2.32"/><path class="cls-1" d="M59.46,8.52l2.42-.12a2.41,2.41,0,0,0,.06,1.54c.27.43.9.65,1.89.65a3.35,3.35,0,0,0,1.89-.44,1.76,1.76,0,0,0,.78-1.07,1,1,0,0,0-.25-.92,6.6,6.6,0,0,0-1.54-.89,12.46,12.46,0,0,1-1.85-1,2.19,2.19,0,0,1-.8-1.08,2.83,2.83,0,0,1,0-1.55A4.32,4.32,0,0,1,63.71,1a5.55,5.55,0,0,1,3.46-1,4.12,4.12,0,0,1,3.11,1A3,3,0,0,1,71,3.7l-2.43.11a1.61,1.61,0,0,0-.34-1.34A2,2,0,0,0,66.72,2a2.74,2.74,0,0,0-1.57.37,1.5,1.5,0,0,0-.65.93.91.91,0,0,0,.22.87,6.42,6.42,0,0,0,1.6,1,7.62,7.62,0,0,1,2.36,1.48,2.43,2.43,0,0,1,.39,2.15,4.68,4.68,0,0,1-1.89,2.77,6.19,6.19,0,0,1-3.82,1.15,5.75,5.75,0,0,1-2.62-.53,2.39,2.39,0,0,1-1.31-1.47,4.2,4.2,0,0,1,0-2.17"/><polygon class="cls-1" points="74.95 12.46 72.43 12.46 76.79 2.27 73.2 2.27 74.06 0.22 83.7 0.22 82.84 2.27 79.31 2.27 74.95 12.46"/><polygon class="cls-1" points="79.83 10.15 82.2 10.15 81.24 12.46 78.86 12.46 79.83 10.15"/><polygon class="cls-1" points="83.52 12.46 88.77 0.22 91.28 0.22 89.05 5.42 95.84 0.22 99.21 0.22 92.68 5.02 95.08 12.46 92.22 12.46 90.49 6.63 87.64 8.73 86.04 12.46 83.52 12.46"/><path class="cls-1" d="M95.61,12.46l.82-1.93,8.88-8.25H99.58l.88-2.05h8.82l-.78,1.91-8.95,8.31,1.32,0,2.21,0H106l-.88,2.05Z"/><path class="cls-2" d="M33.78.15c-3.12.21-6.24.41-10.51.64s-9.68.48-13.75.38A61.13,61.13,0,0,1,0,.15,10.31,10.31,0,0,0,3.41,2.32a20.37,20.37,0,0,0,7.4,1A96.34,96.34,0,0,0,22.86,2.14c4-.61,7.47-1.3,10.92-2"/><path class="cls-2" d="M33,2.42C28.4,3.21,23.8,4,20.67,4.5s-4.8.72-6.43.83a30.7,30.7,0,0,1-4.51,0A25.32,25.32,0,0,1,6.4,4.74h0a21.43,21.43,0,0,0,4.25,1.51,28.77,28.77,0,0,0,6.5.64,61,61,0,0,0,6.68-.56l3.71-.46a7.29,7.29,0,0,0-1.2,2.35,4.76,4.76,0,0,0,.16,2.54,4,4,0,0,0,1,1.52,22.79,22.79,0,0,1,1.2-3.78A19.78,19.78,0,0,1,30.85,5,30.47,30.47,0,0,1,33,2.42"/></g></g></svg>