<svg xmlns="http://www.w3.org/2000/svg" viewBox="0 0 155.09 18"><defs><style>.cls-1,.cls-2{fill:#0157a5;}.cls-2{fill-rule:evenodd;}</style></defs><title>logo_blue</title><g id="Слой_2" data-name="Слой 2"><g id="Layer_1" data-name="Layer 1"><path class="cls-1" d="M55.25,8.15h1.1a13.79,13.79,0,0,0,3.85-.35,4.16,4.16,0,0,0,1.74-1.13A3.67,3.67,0,0,0,62.85,5a1.57,1.57,0,0,0-.05-1,1.15,1.15,0,0,0-.65-.58,7.85,7.85,0,0,0-2.2-.18H57.38Zm-4.08,9.53H47.6L55,.32h7A7.33,7.33,0,0,1,65,.76a2.62,2.62,0,0,1,1.41,1.47,4.12,4.12,0,0,1,.1,2.44,8,8,0,0,1-1.07,2.56,8.21,8.21,0,0,1-1.69,2,7.27,7.27,0,0,1-1.84,1.13,10.26,10.26,0,0,1-2.42.58,28.23,28.23,0,0,1-3.17.12H54Z"/><path class="cls-1" d="M69.94,10.8a3.73,3.73,0,0,0,.43,3A2.92,2.92,0,0,0,73,15a5.66,5.66,0,0,0,3-1,9.6,9.6,0,0,0,2.84-2.9,11.25,11.25,0,0,0,1.7-3.78,3.93,3.93,0,0,0-.39-3.23A2.94,2.94,0,0,0,77.54,3a6.37,6.37,0,0,0-4.79,2.44,11.83,11.83,0,0,0-2.81,5.37m-3.56.07a14.67,14.67,0,0,1,1.17-3.25,15.44,15.44,0,0,1,2.71-4A12.26,12.26,0,0,1,74,1a10.55,10.55,0,0,1,4.5-1,5.63,5.63,0,0,1,4.77,2,6.19,6.19,0,0,1,.82,5.32,14.3,14.3,0,0,1-2.46,5.32,13.33,13.33,0,0,1-4.38,4A10.84,10.84,0,0,1,71.91,18a6.06,6.06,0,0,1-3.83-1.1,4.54,4.54,0,0,1-1.73-2.73,8,8,0,0,1,0-3.29"/><path class="cls-1" d="M84.4,12.09l3.43-.18a3.42,3.42,0,0,0,.08,2.18q.58.92,2.69.92a4.73,4.73,0,0,0,2.68-.63,2.48,2.48,0,0,0,1.11-1.52A1.35,1.35,0,0,0,94,11.56a9.2,9.2,0,0,0-2.19-1.27,17.74,17.74,0,0,1-2.63-1.47,3.11,3.11,0,0,1-1.13-1.53A4,4,0,0,1,88,5.1a6.14,6.14,0,0,1,2.39-3.65A7.88,7.88,0,0,1,95.34,0q3.06,0,4.42,1.43a4.32,4.32,0,0,1,1,3.82l-3.45.15a2.28,2.28,0,0,0-.48-1.91,2.83,2.83,0,0,0-2.13-.66,3.88,3.88,0,0,0-2.22.52,2.13,2.13,0,0,0-.92,1.32,1.29,1.29,0,0,0,.31,1.24,9.16,9.16,0,0,0,2.27,1.36,10.8,10.8,0,0,1,3.35,2.1A3.45,3.45,0,0,1,98,12.43a6.64,6.64,0,0,1-2.68,3.93A8.78,8.78,0,0,1,89.93,18a8.17,8.17,0,0,1-3.72-.75,3.41,3.41,0,0,1-1.86-2.09,6,6,0,0,1,0-3.07"/><polygon class="cls-1" points="106.37 17.68 102.8 17.68 108.99 3.23 103.9 3.23 105.12 0.32 118.79 0.32 117.58 3.23 112.56 3.23 106.37 17.68"/><polygon class="cls-1" points="113.3 14.4 116.67 14.4 115.3 17.68 111.93 17.68 113.3 14.4"/><polygon class="cls-1" points="118.55 17.68 125.98 0.32 129.55 0.32 126.39 7.7 136.03 0.32 140.81 0.32 131.54 7.13 134.94 17.68 130.89 17.68 128.43 9.41 124.38 12.38 122.11 17.68 118.55 17.68"/><path class="cls-1" d="M135.7,17.68l1.16-2.74L149.46,3.23h-8.13L142.58.32h12.52L154,3l-12.7,11.8,1.87,0,3.14,0h4.1l-1.24,2.91Z"/><path class="cls-2" d="M47.95.21C43.52.5,39.09.79,33,1.11s-13.74.68-19.52.54A86.79,86.79,0,0,1,0,.21,14.58,14.58,0,0,0,4.84,3.29,28.92,28.92,0,0,0,15.34,4.71,136.72,136.72,0,0,0,32.45,3C38.15,2.17,43,1.19,47.95.21"/><path class="cls-2" d="M46.82,3.43c-6.52,1.12-13,2.24-17.48,3s-6.81,1-9.12,1.17a43.86,43.86,0,0,1-6.41,0,36.44,36.44,0,0,1-4.72-.79l0,0a30.16,30.16,0,0,0,6,2.14,40.9,40.9,0,0,0,9.23.91A86.56,86.56,0,0,0,33.81,9l5.27-.65a10.37,10.37,0,0,0-1.7,3.34,6.77,6.77,0,0,0,.22,3.6,5.75,5.75,0,0,0,1.48,2.16A32.5,32.5,0,0,1,40.79,12a27.82,27.82,0,0,1,3-5,43.31,43.31,0,0,1,3-3.6"/></g></g></svg>