<svg xmlns="http://www.w3.org/2000/svg" viewBox="0 0 41.81 55.93"><defs><style>.cls-1{fill:#c8d2d6;}.cls-2{fill:#e7eced;}.cls-3{fill:#0157a5;}.cls-4{fill:#ffc95c;}.cls-5{fill:#f8ab49;}.cls-6{fill:#004172;}</style></defs><title>mobile</title><g id="Слой_2" data-name="Слой 2"><g id="Layer_1" data-name="Layer 1"><rect class="cls-1" x="0.96" y="45.32" width="23.14" height="10.6"/><path class="cls-2" d="M8.68,51.66A6.34,6.34,0,0,1,15,45.32h9.09v10.6H8.68Z"/><path class="cls-3" d="M12.54,50.62A2.41,2.41,0,1,1,15,53a2.41,2.41,0,0,1-2.41-2.41"/><path class="cls-4" d="M20.93,5.88a3.37,3.37,0,1,0-4.45,4.44Z"/><path class="cls-4" d="M16.11,10.7a3.37,3.37,0,1,0-4.45,4.44Z"/><path class="cls-4" d="M11.29,15.52A3.37,3.37,0,1,0,6.84,20Z"/><path class="cls-4" d="M6.47,20.34A3.37,3.37,0,1,0,2,24.78Z"/><path class="cls-4" d="M21.7,31.82a3.37,3.37,0,1,1,0-6.75h9.64a3.37,3.37,0,1,1,0,6.75Z"/><path class="cls-5" d="M1.8,30.43A7.21,7.21,0,0,0,2.89,41v4.35H22.18V42.18c.08-.07.16-.12.23-.19L32.83,31.61c.58-.5-.94.48-1.49.21H25l-9.33,9.34a2.22,2.22,0,0,1-3.13,0Z"/><path class="cls-6" d="M3.86,22.95l15,15L25,31.82H21.7a3.37,3.37,0,1,1,0-6.75h9.64a2.94,2.94,0,0,1,.36,0L39,17.79l-15-15Z"/><path class="cls-3" d="M39,17.79l2.14-2.14a2.21,2.21,0,0,0,0-3.13L29.29.65a2.21,2.21,0,0,0-3.13,0L24,2.79Z"/><path class="cls-3" d="M.65,26.16a2.21,2.21,0,0,0,0,3.13L12.52,41.16a2.21,2.21,0,0,0,3.13,0l3.21-3.21-15-15Z"/><path class="cls-4" d="M7.23,32.3a1.93,1.93,0,1,1,1.93,1.92A1.93,1.93,0,0,1,7.23,32.3"/><path class="cls-4" d="M33.75,10.61a1,1,0,0,1-.68-.28L31.14,8.4A1,1,0,0,1,32.5,7L34.43,9a1,1,0,0,1-.68,1.65"/></g></g></svg>