<svg xmlns="http://www.w3.org/2000/svg" viewBox="0 0 106.97 37.12"><defs><style>.cls-1{fill:#0157a5;}.cls-2{fill:#004172;}.cls-3{fill:#2b3b4e;}.cls-4{fill:#324a5e;}.cls-5{fill:#efefef;}.cls-6{fill:#ced5e0;}.cls-7{fill:#ffc95c;}.cls-8{fill:#e6e9ee;}.cls-9{fill:#acb3ba;}.cls-10{fill:#84dbff;}.cls-11{fill:#f8ab49;}</style></defs><title>pdd</title><g id="Слой_2" data-name="Слой 2"><g id="Layer_1" data-name="Layer 1"><path class="cls-1" d="M17.46,6.72c-.91.46-1.87.86-2.73,1.39A14.52,14.52,0,0,1,8,10.31c-7.61.1-6.8,4.47-7.43,8.5,0,.05,0,.13,0,.18-.89,5.79-1.94,11.55,8.85,12.19,4.3.25,10.49,1.21,19.6,1l70.29.05a12.48,12.48,0,0,1,1.36.08c1.87.25,8.52.46,5.64-10.72a10.7,10.7,0,0,0-6.93-7.46c-3.26-1.09-8.42-2.23-16.51-2.88A10.94,10.94,0,0,1,77.06,9a40.92,40.92,0,0,0-24-8.8S34.2-1.67,17.46,6.72"/><path class="cls-2" d="M23.3,11.22a9.33,9.33,0,0,0,.12,1.44,14.45,14.45,0,0,0,.31,1.42l.45,1.37.53,1.34.61,1.29c.18.43.43.83.66,1.26s.45.86.71,1.26l.76,1.24c.25.4.51.81.78,1.21L29,24.24c.28.38.56.78.83,1.16.56.76,1.11,1.57,1.72,2.3L33.39,30l.05.05h.08l10.72,0c.89,0,1.8,0,2.68,0l2.68,0h.58c-.08.4-.1.78-.15,1.09,0,.61-.1,1-.1,1s.07-.33.2-.93c.08-.3.15-.66.23-1.09v0l4.6.08,10.72.18,10.72.13h.15l0-.15c.28-1.34.48-2.68.63-4h.2l1.82,0-1.82-.08h-.2c0-.15,0-.28,0-.43.08-.78.15-1.54.2-2.3s.1-1.54.13-2.3c0-.38,0-.76,0-1.14s0-.76,0-1.14V17.74c0-.38,0-.76,0-1.14s0-.76-.05-1.14l0-1.14c0-.79-.13-1.54-.18-2.3v0l0,0A16.42,16.42,0,0,0,75,11a18.54,18.54,0,0,0-2.43-.63v0a20,20,0,0,1,2.4.71,13.9,13.9,0,0,1,2.25,1c0,.76.13,1.49.15,2.25l.05,1.14c0,.38,0,.76,0,1.14v1.14l0,1.14c0,.38,0,.76,0,1.14s0,.76-.05,1.14q0,1.14-.15,2.28c-.08.76-.15,1.52-.23,2.28a2.78,2.78,0,0,1-.05.46L72.63,26l-6.83-.15c-2.5-.05-5.16-.08-7.81-.13l-7-.05a5.08,5.08,0,0,0,.05-.61c0-.66.1-1.34.12-2s.08-1.39.08-2.1c0-1.39,0-2.81-.08-4.12,0-.66-.07-1.29-.12-1.9s-.1-1.16-.15-1.69c-.1-1.06-.25-1.92-.35-2.53s-.18-.94-.18-.94.05.36.1,1,.1,1.49.17,2.53.1,2.28.15,3.59,0,2.71,0,4.1c0,.68,0,1.39-.05,2.07s-.08,1.37-.1,2c0,.2,0,.43,0,.63h-.46c-2.5,0-4.83,0-6.83,0s-3.67,0-4.83,0l-1.82,0,1.82.08,4.83.13c2,.05,4.32.13,6.83.15h.46c0,.3,0,.58-.07.86,0,.61-.1,1.16-.15,1.69s-.07.91-.12,1.29H47l-2.68,0-10.64-.18-1.72-2.2c-.61-.76-1.14-1.54-1.72-2.3-.28-.38-.58-.76-.83-1.16l-.81-1.19c-.28-.38-.53-.78-.78-1.19L27,20.5c-.25-.41-.48-.83-.71-1.24s-.48-.83-.68-1.26L25,16.71l-.56-1.31L24,14.05a14.23,14.23,0,0,1-.35-1.39,8.54,8.54,0,0,1-.18-1.42,3.27,3.27,0,0,1,.18-1.39l0,0a7,7,0,0,0-.3,1.39M50.43,30c.08-.38.13-.81.2-1.27s.15-1.09.23-1.69c0-.3.08-.58.1-.88l7,.1c2.65,0,5.31,0,7.81,0h6.83l4.27,0c-.15,1.29-.36,2.55-.61,3.82L65.7,30,55,30Z"/><path class="cls-3" d="M81,28a9.44,9.44,0,0,0,.94,4.15l17.14,0A9.52,9.52,0,1,0,81,28"/><path class="cls-3" d="M12.8,28.48a9.33,9.33,0,0,0,.53,3.16,170.35,170.35,0,0,0,17.57,1,9.4,9.4,0,0,0,.94-4.12,9.52,9.52,0,1,0-19,0"/><path class="cls-4" d="M22.33,19.83A8.65,8.65,0,1,0,31,28.48a8.65,8.65,0,0,0-8.65-8.65"/><path class="cls-5" d="M22.33,21.91a6.57,6.57,0,1,0,6.57,6.57,6.57,6.57,0,0,0-6.57-6.57"/><path class="cls-4" d="M90.53,19.39A8.65,8.65,0,1,0,99.18,28a8.65,8.65,0,0,0-8.65-8.65"/><path class="cls-5" d="M90.53,21.46A6.57,6.57,0,1,0,97.11,28a6.58,6.58,0,0,0-6.57-6.57"/><path class="cls-6" d="M101.48,17.24s1.49,4.12,4,4.25c.28,0,.53,0,.78,0a10.88,10.88,0,0,0-2.07-4.07,14.66,14.66,0,0,1-2.68-.2"/><path class="cls-7" d="M104.89,25.86s.15,2.18,1.79,2.88a9.91,9.91,0,0,0,.25-2.88Z"/><path class="cls-8" d="M26.81,9.81c.59-.92,1.15-1.67,1.5-2.12l-1-.21a10.75,10.75,0,0,0-.48,2.33"/><path class="cls-9" d="M26.48,25.22l-2.61,2.6h3.69a5.18,5.18,0,0,0-1.09-2.6"/><path class="cls-9" d="M23,23.25v3.67l2.61-2.6A5,5,0,0,0,23,23.25"/><path class="cls-9" d="M27.56,29.14H23.87l2.6,2.61a5.08,5.08,0,0,0,1.09-2.61"/><path class="cls-9" d="M25.57,32.65,23,30v3.69a5.25,5.25,0,0,0,2.61-1.09"/><path class="cls-9" d="M94.7,24.77l-2.6,2.6h3.67a5.37,5.37,0,0,0-1.06-2.6"/><path class="cls-9" d="M91.17,22.8v3.67l2.6-2.6a5,5,0,0,0-2.6-1.06"/><path class="cls-9" d="M95.77,28.69H92.07l2.6,2.6a5.07,5.07,0,0,0,1.09-2.6"/><path class="cls-9" d="M93.77,32.21l-2.6-2.61V33.3a5.23,5.23,0,0,0,2.6-1.09"/><path class="cls-9" d="M87.27,23.86l2.6,2.6V22.78a5.57,5.57,0,0,0-2.6,1.09"/><path class="cls-9" d="M85.27,27.4H89l-2.61-2.6a5.21,5.21,0,0,0-1.09,2.6"/><path class="cls-9" d="M89.87,29.6l-2.6,2.61a5.32,5.32,0,0,0,2.6,1.09Z"/><path class="cls-9" d="M85.27,28.69a5.2,5.2,0,0,0,1.09,2.6L89,28.69Z"/><path class="cls-6" d="M90.53,26a2,2,0,1,0,2,2,2.05,2.05,0,0,0-2-2"/><path class="cls-4" d="M76.42,11.75l-52.9-1.19s.36-9.36,24.63-9.36c19.21,0,28.27,10.54,28.27,10.54"/><path class="cls-7" d="M74.12,10.82C70.91,8.09,63,2.63,50,2.17a33.44,33.44,0,0,1,2.43,8.17Z"/><path class="cls-10" d="M31.83,4.85A29.54,29.54,0,0,1,33.4,9.91l16.21.35a43.88,43.88,0,0,0-.86-8.09c-8.22.08-13.5,1.24-16.91,2.68"/><path class="cls-7" d="M31.83,4.88A30.25,30.25,0,0,1,33.4,9.93l10.14.23h.61l1.54,0,1,0,2.88.05a43.88,43.88,0,0,0-.86-8.09c-2.3,0-4.35.1-6.22.28-.33,0-.66.05-1,.1-.48,0-1,.1-1.41.18l-.56.07a34.14,34.14,0,0,0-7.73,2.07"/><path class="cls-7" d="M25.68,9.61l6.45.15a40.16,40.16,0,0,0-1.57-4.58c-3.18,1.57-4.42,3.36-4.88,4.42"/><path class="cls-7" d="M28.31,13.32c-1.33,0-2.4.56-2.4,1.26s1.08,1.27,2.4,1.27,2.4-.57,2.4-1.27-1.07-1.26-2.4-1.26"/><path class="cls-11" d="M26.67,15H30a.84.84,0,0,0,.83-.83h-5a.85.85,0,0,0,.86.83"/><path class="cls-7" d="M54.81,14.1c-1.33,0-2.4.57-2.4,1.27s1.08,1.26,2.4,1.26,2.4-.57,2.4-1.26-1.08-1.27-2.4-1.27"/><path class="cls-11" d="M53.16,15.85h3.31a.84.84,0,0,0,.83-.83h-5a.85.85,0,0,0,.86.83"/><path class="cls-8" d="M102.41,17.85c.15.23.3.43.48.66l.68.83c.1.13.18.28.28.38a1.79,1.79,0,0,0,1.39.53,3.79,3.79,0,0,0,.53-.05,10.11,10.11,0,0,0-1.32-2.33,5.1,5.1,0,0,1-.83.23,1.68,1.68,0,0,1-1.21-.25"/><path class="cls-9" d="M18.29,31.75l2.61-2.6H17.21a5.18,5.18,0,0,0,1.09,2.6"/><path class="cls-9" d="M21.81,33.73V30.06l-2.61,2.6a5,5,0,0,0,2.61,1.06"/><path class="cls-9" d="M17.21,27.84H20.9l-2.6-2.61a5.08,5.08,0,0,0-1.09,2.61"/><path class="cls-9" d="M19.21,24.32l2.61,2.6V23.23a5.25,5.25,0,0,0-2.61,1.09"/><path class="cls-6" d="M22.33,26.43a2,2,0,1,0,2,2,2.05,2.05,0,0,0-2-2"/></g></g></svg>