<?xml version="1.0" encoding="utf-8"?>
<!-- Generator: Adobe Illustrator 19.1.0, SVG Export Plug-In . SVG Version: 6.00 Build 0)  -->
<svg version="1.1" xmlns="http://www.w3.org/2000/svg" xmlns:xlink="http://www.w3.org/1999/xlink" x="0px" y="0px"
	 viewBox="0 0 32.2 32.2" style="enable-background:new 0 0 32.2 32.2;" xml:space="preserve">
<style type="text/css">
	.st0{opacity:0.8;fill:#FFFFFF;}
	.st1{fill:#FAFAFA;}
	.st2{opacity:0.8;fill:url(#SVGID_11_);}
	.st3{opacity:0.8;}
	.st4{fill:#FFFFFF;}
	.st5{fill-rule:evenodd;clip-rule:evenodd;fill:#FFFFFF;}
	.st6{fill:#FFC95C;}
	.st7{fill:none;stroke:#B1B1B1;stroke-miterlimit:10;}
	.st8{fill:#B1B1B1;}
	.st9{opacity:0.1;fill:#FFFFFF;}
	.st10{fill:#0157A5;}
	.st11{fill:#FFFFFF;stroke:#0157A5;stroke-miterlimit:10;}
	.st12{opacity:0.5;fill:#FFFFFF;}
	.st13{fill:#666666;}
	.st14{opacity:0.9;fill:#FFFFFF;stroke:#B1B1B1;stroke-miterlimit:10;}
	.st15{fill:#333333;}
	.st16{opacity:0.9;fill:#FFFFFF;}
	.st17{fill:#13307A;}
	.st18{fill:#00AEEF;}
	.st19{fill-rule:evenodd;clip-rule:evenodd;fill:#F0F0F0;}
	.st20{opacity:0.2;}
	.st21{opacity:0.8;fill:url(#SVGID_14_);}
	.st22{fill:#FFF1E1;}
	.st23{fill:#7EA9D3;}
	.st24{fill:none;stroke:#E4E4E4;stroke-miterlimit:10;}
	.st25{opacity:0.8;fill:url(#SVGID_17_);}
	.st26{opacity:0.8;fill:url(#SVGID_20_);}
	.st27{opacity:0.8;fill:url(#SVGID_23_);}
	.st28{opacity:0.8;fill:url(#SVGID_26_);}
	.st29{opacity:0.8;fill:url(#SVGID_29_);}
	.st30{opacity:0.8;fill:url(#SVGID_32_);}
	.st31{opacity:0.9;fill:#333333;}
	.st32{opacity:0.8;fill:url(#SVGID_33_);}
	.st33{opacity:0.8;fill:url(#SVGID_34_);}
	.st34{opacity:0.8;fill:url(#SVGID_35_);}
	.st35{opacity:0.8;fill:url(#SVGID_36_);}
	.st36{opacity:0.8;fill:url(#SVGID_45_);}
	.st37{opacity:0.8;fill:url(#SVGID_46_);}
	.st38{opacity:0.8;fill:url(#SVGID_47_);}
	.st39{opacity:0.8;fill:url(#SVGID_48_);}
	.st40{opacity:0.8;fill:url(#SVGID_49_);}
	.st41{opacity:0.8;fill:url(#SVGID_50_);}
	.st42{fill:#4B86B7;}
	.st43{opacity:0.5;fill:#333333;}
	.st44{fill:none;stroke:#CACACA;stroke-miterlimit:10;}
	.st45{opacity:0.2;fill:#FFCB80;}
	.st46{fill:none;stroke:#B4B4B4;stroke-miterlimit:10;}
	.st47{fill:#CACACA;}
	.st48{fill:#808080;}
	.st49{fill:none;stroke:#0157A5;stroke-miterlimit:10;}
	.st50{opacity:0.9;fill:#808080;}
	.st51{fill:#F0F0F0;}
	.st52{fill:#409BCF;}
	.st53{fill:none;stroke:#FFFFFF;stroke-miterlimit:10;}
	.st54{fill:none;stroke:#BF272D;stroke-miterlimit:10;}
	.st55{opacity:0.6;fill:#FFFFFF;}
	.st56{fill-rule:evenodd;clip-rule:evenodd;fill:#0157A5;}
	.st57{opacity:0.49;}
	.st58{clip-path:url(#SVGID_54_);}
	.st59{fill:#F4D79D;}
	.st60{opacity:0.1;}
	.st61{opacity:0.8;fill:url(#SVGID_57_);}
	.st62{clip-path:url(#SVGID_59_);}
	.st63{clip-path:url(#SVGID_61_);}
	.st64{opacity:0.8;fill:url(#SVGID_64_);}
	.st65{fill:#5798E5;}
	.st66{opacity:0.8;fill:url(#SVGID_75_);}
	.st67{fill:#2065AF;}
	.st68{opacity:0.8;fill:url(#SVGID_78_);}
</style>
<g id="Слой_1">
	<g>
		<g>
			<path class="st10" d="M23.4,20.3c-0.2-0.5-0.7-1.1-1.3-1.2l-2-0.5c-0.5-0.1-1.3,0.1-1.7,0.4l-0.7,0.7c-2.6-0.7-4.6-2.7-5.3-5.3
				l0.7-0.7c0.4-0.4,0.6-1.1,0.4-1.7l-0.5-2C13,9.6,12.4,9,11.9,8.8l-0.2-0.1c-0.5-0.2-1.3,0-1.7,0.4L9,10.2
				c-0.2,0.2-0.3,0.7-0.3,0.7c0,3.4,1.3,6.6,3.7,9c2.4,2.4,5.6,3.7,9,3.7c0,0,0.6-0.1,0.8-0.3l1.1-1.1c0.4-0.4,0.6-1.1,0.4-1.7
				L23.4,20.3z"/>
			<path class="st10" d="M16.1,0.1c-8.8,0-16,7.2-16,16s7.2,16,16,16c8.8,0,16-7.2,16-16S25,0.1,16.1,0.1z M16.1,29.2
				c-7.2,0-13-5.8-13-13s5.8-13,13-13c7.2,0,13,5.8,13,13S23.3,29.2,16.1,29.2z"/>
		</g>
	</g>
</g>
<g id="Слой_2">
</g>
</svg>
