<svg xmlns="http://www.w3.org/2000/svg" viewBox="0 0 58.52 44.6"><defs><style>.cls-1{fill:#ffc95c;}.cls-2{fill:#a4d7f4;}.cls-3{fill:#5090cd;}.cls-4{fill:#004172;}.cls-5{fill:#fb0;}.cls-6{fill:#f8ab49;}.cls-7{fill:#00529b;}.cls-8{fill:#f0f0f0;}.cls-9{fill:#0157a5;}</style></defs><title>postomat</title><g id="Слой_2" data-name="Слой 2"><g id="Layer_1" data-name="Layer 1"><rect class="cls-1" y="5.35" width="58.52" height="39.25"/><path class="cls-2" d="M11.14,14.39H5.92a.73.73,0,0,0-.72.73v5.22a.72.72,0,0,0,.72.72h5.22a.73.73,0,0,0,.73-.72V15.11A.73.73,0,0,0,11.14,14.39Z"/><path class="cls-3" d="M21.39,14.39H16.17a.73.73,0,0,0-.73.73v5.22a.72.72,0,0,0,.73.72h5.22a.73.73,0,0,0,.73-.72V15.11A.73.73,0,0,0,21.39,14.39Z"/><path class="cls-4" d="M31.64,14.39H26.42a.73.73,0,0,0-.73.73v5.22a.73.73,0,0,0,.73.72h5.22a.72.72,0,0,0,.72-.72V15.11A.73.73,0,0,0,31.64,14.39Z"/><path class="cls-5" d="M11.14,23.37H5.92a.72.72,0,0,0-.72.72v5.22a.72.72,0,0,0,.72.73h5.22a.73.73,0,0,0,.73-.73V24.1A.73.73,0,0,0,11.14,23.37Z"/><path class="cls-6" d="M21.39,23.37H16.17a.72.72,0,0,0-.73.72v5.22a.72.72,0,0,0,.73.73h5.22a.73.73,0,0,0,.73-.73V24.1A.73.73,0,0,0,21.39,23.37Z"/><path class="cls-4" d="M11.14,32.28H5.92a.72.72,0,0,0-.72.72v5.22a.72.72,0,0,0,.72.73h5.22a.73.73,0,0,0,.73-.73V33A.73.73,0,0,0,11.14,32.28Z"/><path class="cls-1" d="M21.39,32.28H16.17a.72.72,0,0,0-.73.72v5.22a.72.72,0,0,0,.73.73h5.22a.73.73,0,0,0,.73-.73V33A.73.73,0,0,0,21.39,32.28Z"/><path class="cls-7" d="M31.64,32.28H26.42a.73.73,0,0,0-.73.72v5.22a.73.73,0,0,0,.73.73h5.22a.72.72,0,0,0,.72-.73V33A.72.72,0,0,0,31.64,32.28Z"/><path class="cls-7" d="M31.64,23.42H26.42a.73.73,0,0,0-.73.72v8.95h6.68V24.14A.73.73,0,0,0,31.64,23.42Z"/><path class="cls-8" d="M23.71,12.37H34.36a1.1,1.1,0,0,0,1.11-1.1V1.1A1.1,1.1,0,0,0,34.36,0H23.71a1.1,1.1,0,0,0-1.1,1.1V11.26A1.1,1.1,0,0,0,23.71,12.37Z"/><path class="cls-9" d="M32.4,4.67a2.9,2.9,0,0,1-.85,2.24,3.46,3.46,0,0,1-2.43.79h-.66v2.87H26.13V1.92h3a3.66,3.66,0,0,1,2.46.72A2.56,2.56,0,0,1,32.4,4.67ZM28.46,5.79h.43a1.16,1.16,0,0,0,.84-.3A1.06,1.06,0,0,0,30,4.68c0-.59-.32-.88-1-.88h-.6Z"/><path class="cls-5" d="M41.9,14.43H36.67a.72.72,0,0,0-.72.73v5.22a.72.72,0,0,0,.72.72H41.9a.72.72,0,0,0,.72-.72V15.15A.72.72,0,0,0,41.9,14.43Z"/><path class="cls-2" d="M41.9,23.42H36.67a.72.72,0,0,0-.72.72v5.22a.72.72,0,0,0,.72.73H41.9a.72.72,0,0,0,.72-.73V24.14A.72.72,0,0,0,41.9,23.42Z"/><path class="cls-4" d="M41.9,32.32H36.67a.72.72,0,0,0-.72.72v5.22a.73.73,0,0,0,.72.73H41.9a.72.72,0,0,0,.72-.73V33A.72.72,0,0,0,41.9,32.32Z"/><path class="cls-4" d="M52.15,14.42H46.92a.73.73,0,0,0-.73.73v5.22a.73.73,0,0,0,.73.73h5.22a.72.72,0,0,0,.72-.73V15.15A.73.73,0,0,0,52.15,14.42Z"/><path class="cls-3" d="M52.15,23.42H46.92a.73.73,0,0,0-.73.72v5.22a.73.73,0,0,0,.73.73h5.22a.73.73,0,0,0,.72-.73V24.14A.72.72,0,0,0,52.15,23.42Z"/><path class="cls-1" d="M52.15,32.32H46.92a.73.73,0,0,0-.73.72v5.22a.73.73,0,0,0,.73.73h5.22a.73.73,0,0,0,.72-.73V33A.72.72,0,0,0,52.15,32.32Z"/></g></g></svg>