<svg xmlns="http://www.w3.org/2000/svg" xmlns:xlink="http://www.w3.org/1999/xlink" viewBox="0 0 471.93 340.5"><defs><style>.cls-1{fill:url(#Безымянный_градиент);}.cls-2{fill:#3b424c;}.cls-3{fill:url(#Безымянный_градиент_2);}.cls-4{fill:url(#Безымянный_градиент_3);}.cls-5{fill:#14579f;}.cls-6{fill:#155594;}</style><linearGradient id="Безымянный_градиент" x1="95.88" y1="239.62" x2="227.31" y2="239.62" gradientTransform="matrix(1, 0, 0, -1, 0, 340.41)" gradientUnits="userSpaceOnUse"><stop offset="0.01" stop-color="#94d1ff"/><stop offset="1" stop-color="#004ecd"/></linearGradient><linearGradient id="Безымянный_градиент_2" x1="-313.57" y1="228.17" x2="-313.57" y2="191.77" gradientTransform="translate(1727.36 -879.62) scale(4.68)" gradientUnits="userSpaceOnUse"><stop offset="0" stop-color="#3b424c"/><stop offset="1" stop-color="#171a1e"/></linearGradient><linearGradient id="Безымянный_градиент_3" x1="-327.82" y1="228.17" x2="-327.82" y2="191.77" gradientTransform="translate(1727.36 -879.62) scale(4.68)" gradientUnits="userSpaceOnUse"><stop offset="0.01" stop-color="#94d1ff"/><stop offset="1" stop-color="#0031c8"/></linearGradient></defs><title>post-erc</title><g id="Слой_2" data-name="Слой 2"><g id="Слой_1-2" data-name="Слой 1"><polygon class="cls-1" points="227.31 25.26 193.63 0 95.88 72.96 113.19 201.59 180.07 201.59 162.77 72.96 227.31 25.26"/><polygon class="cls-2" points="260.99 0 227.31 25.26 291.86 72.96 274.55 201.59 341.43 201.59 358.74 72.96 260.99 0"/><polygon class="cls-3" points="192.23 187.55 177.73 79.04 235.26 36.48 260.52 17.3 343.77 79.04 329.27 187.55 192.23 187.55"/><polygon class="cls-4" points="125.82 187.55 110.85 79.04 168.85 36.48 194.1 17.3 277.36 79.04 262.86 187.55 125.82 187.55"/><path class="cls-2" d="M0,252.57H30.87q11.22,0,18.24,7t7,18.24c0,7.48-2.34,13.56-7.48,18.24-4.68,4.68-11.23,7-18.71,7H15.44v23.39H0v-73.9Zm15.44,12.16v26.19H26.66c4.21,0,8-.94,10.29-3.27A14.76,14.76,0,0,0,37,268c-2.34-2.34-6.08-3.27-10.29-3.27H15.44Z"/><path class="cls-2" d="M72.5,261.45c6.55-7,15-10.29,25.73-10.29s19.64,3.27,25.73,10.29c6.55,7,9.35,15.9,9.35,27.6s-3.27,21-9.35,27.6c-6.55,7-15,10.29-25.73,10.29s-19.64-3.27-25.73-10.29c-6.55-7-9.35-15.9-9.35-27.6C62.67,277.35,65.95,268.47,72.5,261.45Zm40.22,9.35a18.49,18.49,0,0,0-29,0C80,275.49,78.58,281.56,78.58,289s1.87,13.56,5.15,18.24,8.42,7,14.5,7a17.52,17.52,0,0,0,14.5-7c3.74-4.68,5.14-10.76,5.14-18.24S116,275.49,112.72,270.81Z"/><path class="cls-2" d="M140.78,305h15a10.92,10.92,0,0,0,4.68,7.48,17.79,17.79,0,0,0,10.29,2.81q6.31,0,9.82-2.81c2.34-1.87,3.74-4.21,3.74-6.55a6.67,6.67,0,0,0-2.81-5.61,25.64,25.64,0,0,0-9.35-3.74l-9.35-1.87c-13.56-2.81-20.11-9.82-20.11-20.58a20.6,20.6,0,0,1,8-16.37c5.15-4.21,12.16-6.08,20.11-6.08,8.42,0,15.43,1.87,20.11,6.08,5.15,4.21,7.48,9.35,8,15.9h-14.5c-.47-3.27-1.4-5.61-4.21-7.48a15.8,15.8,0,0,0-9.35-2.81,18.42,18.42,0,0,0-9.35,2.34c-2.34,1.4-3.27,3.74-3.27,6.55a6.67,6.67,0,0,0,2.81,5.61,25.67,25.67,0,0,0,9.35,3.74l8.89,1.87c7.48,1.4,12.63,4.21,15.9,7.48s5.14,8,5.14,13.56a20.85,20.85,0,0,1-8,16.84c-5.14,4.21-12.63,6.08-21.51,6.08s-15.9-1.87-21-6.08C143.59,317.11,141.25,312,140.78,305Z"/><path class="cls-2" d="M242.74,326H227.31v-60.8H205.79V252.57h58.46v12.63H242.74V326Z"/><path class="cls-2" d="M339.56,322.26V326h-43V252.57h43v3.74H300.74v30.4h36.95v3.74H300.74v32.27h38.82v-.47Z"/><path class="cls-2" d="M350.79,252.57h23.85c7,0,13.1,1.87,17.31,6.08a22.58,22.58,0,0,1,0,31.8c-4.21,4.21-9.82,6.08-17.31,6.08H355V326h-4.21V252.57Zm4.21,3.74v36.48h19.18c6.08,0,11.23-1.4,15-4.68s5.61-7.48,5.61-13.56c0-5.61-1.87-10.29-5.61-13.56s-8.42-4.68-15-4.68Z"/><path class="cls-2" d="M471.93,340.5h-3.74V326h-59.4V252.57H413v69.69h45.37V252.57h4.21v69.69h9.35V340.5Z"/><polygon class="cls-5" points="227.31 25.26 162.77 72.96 176.8 201.59 227.31 201.59 278.29 201.59 291.86 72.96 227.31 25.26"/><polygon class="cls-6" points="189.43 201.59 177.73 79.51 227.31 42.56 277.36 79.51 265.66 201.59 189.43 201.59"/></g></g></svg>