<svg xmlns="http://www.w3.org/2000/svg" viewBox="0 0 166.5 163.1"><defs><style>.cls-1{fill:#ffc95c;}.cls-2{fill:#004172;}.cls-3{fill:#0157a5;}.cls-4{fill:#eff2fa;}.cls-5{fill:#e4eaf6;}.cls-6{fill:#f8ab49;}.cls-7{fill:#fff;}</style></defs><title>saver</title><g id="Слой_2" data-name="Слой 2"><g id="Layer_1" data-name="Layer 1"><path class="cls-1" d="M166.5,20.83a7.42,7.42,0,0,0-7.4-7.4H7.4A7.42,7.42,0,0,0,0,20.83v90.65l83.39,7.4,83.11-7.4Z"/><rect class="cls-2" x="64.33" y="123.32" width="37.84" height="37"/><path class="cls-3" d="M128.66,163.1H37.84a2.77,2.77,0,0,1,0-5.55h90.82a2.77,2.77,0,0,1,0,5.55"/><path class="cls-3" d="M0,111.48v11.84a7.42,7.42,0,0,0,7.4,7.4H159.1a7.42,7.42,0,0,0,7.4-7.4V111.48Z"/><path class="cls-3" d="M150,0H102.59a1.69,1.69,0,0,0-1.69,1.69V3.39a1.69,1.69,0,0,0,1.69,1.69H150a1.69,1.69,0,0,0,1.69-1.69V1.69A1.69,1.69,0,0,0,150,0"/><path class="cls-3" d="M102.59,98.26H150a1.69,1.69,0,0,0,1.69-1.69V94.87a1.69,1.69,0,0,0-1.69-1.7H102.59a1.69,1.69,0,0,0-1.69,1.7v1.69a1.69,1.69,0,0,0,1.69,1.69"/><path class="cls-4" d="M132.73,45.69l12.85-14A16.94,16.94,0,0,0,150,20.23V5.08H102.59V20.23A16.94,16.94,0,0,0,107,31.68l12.85,14a5.08,5.08,0,0,1,0,6.87L107,66.58A16.94,16.94,0,0,0,102.59,78V93.17H150V78a16.94,16.94,0,0,0-4.45-11.45l-12.85-14a5.08,5.08,0,0,1,0-6.87"/><path class="cls-5" d="M122.66,66.58l4.13-14a14,14,0,0,0,0-6.87l-4.13-14a42.28,42.28,0,0,1-1.43-11.45V5.08H102.59V20.23A17,17,0,0,0,107,31.68l12.85,14a5.08,5.08,0,0,1,0,6.87L107,66.58A16.94,16.94,0,0,0,102.59,78V93.17h18.63V78a42.26,42.26,0,0,1,1.43-11.45"/><path class="cls-2" d="M119.53,3.39V1.69A1.69,1.69,0,0,1,121.23,0H102.59a1.69,1.69,0,0,0-1.69,1.69V3.39a1.69,1.69,0,0,0,1.69,1.69h18.64a1.69,1.69,0,0,1-1.7-1.69"/><path class="cls-2" d="M119.53,96.56V94.87a1.69,1.69,0,0,1,1.7-1.69H102.59a1.69,1.69,0,0,0-1.69,1.69v1.69a1.7,1.7,0,0,0,1.69,1.7h18.64a1.7,1.7,0,0,1-1.7-1.7"/><path class="cls-1" d="M141.83,70l-3.11-3.39a1.69,1.69,0,0,0-1.25-.55h-8.62a1.69,1.69,0,0,1-1.69-1.69V47.26a7.36,7.36,0,0,1,1.8-5l0,0,9.23-10.07H116.33a.85.85,0,0,0-.62,1.42l7.93,8.65,0,0a7.37,7.37,0,0,1,1.8,5V64.38a1.69,1.69,0,0,1-1.69,1.69h-8.62a1.69,1.69,0,0,0-1.25.55L110.79,70a11.86,11.86,0,0,0-3.12,8v9.22a.85.85,0,0,0,.85.85H144.1a.85.85,0,0,0,.85-.85V78a11.86,11.86,0,0,0-3.12-8"/><path class="cls-6" d="M115.7,33.61l7.93,8.65,0,0a7.36,7.36,0,0,1,1.8,5v9.8l1.33-4.5a11,11,0,0,0,.37-2.14V47.84a11,11,0,0,0-.37-2.14l-4-13.51h-6.48a.85.85,0,0,0-.62,1.42"/><path class="cls-6" d="M121.23,78a42.22,42.22,0,0,1,1.43-11.45l.15-.51h-7.66a1.69,1.69,0,0,0-1.25.55L110.79,70a11.86,11.86,0,0,0-3.12,8v9.22a.85.85,0,0,0,.85.85h12.71Z"/><rect class="cls-7" x="15.65" y="26.04" width="70.42" height="9.91"/><rect class="cls-2" x="18.98" y="28.68" width="4.06" height="4.62"/><rect class="cls-2" x="25.94" y="28.68" width="4.06" height="4.62"/><rect class="cls-2" x="32.89" y="28.68" width="4.06" height="4.62"/><rect class="cls-2" x="39.85" y="28.68" width="4.06" height="4.62"/><rect class="cls-7" x="15.65" y="46.86" width="70.42" height="9.91"/><rect class="cls-7" x="15.65" y="67.68" width="70.42" height="9.91"/><rect class="cls-7" x="15.65" y="88.5" width="70.42" height="9.91"/><rect class="cls-2" x="18.98" y="49.5" width="4.06" height="4.62"/><rect class="cls-2" x="25.94" y="49.5" width="4.06" height="4.62"/><rect class="cls-2" x="32.89" y="49.5" width="4.06" height="4.62"/><rect class="cls-2" x="18.98" y="70.32" width="4.06" height="4.62"/><rect class="cls-2" x="25.94" y="70.32" width="4.06" height="4.62"/><rect class="cls-2" x="32.89" y="70.32" width="4.06" height="4.62"/><rect class="cls-2" x="39.85" y="70.32" width="4.06" height="4.62"/><rect class="cls-2" x="46.8" y="70.32" width="4.06" height="4.62"/><rect class="cls-2" x="18.98" y="91.14" width="4.06" height="4.62"/><rect class="cls-2" x="25.94" y="91.14" width="4.06" height="4.62"/></g></g></svg>