<svg xmlns="http://www.w3.org/2000/svg" viewBox="0 0 42.24 37.28"><defs><style>.cls-1{fill:none;}.cls-1,.cls-2{stroke:#000;stroke-miterlimit:10;}</style></defs><title>gybr3</title><g id="Слой_2" data-name="Слой 2"><g id="Слой_1-2" data-name="Слой 1"><path d="M41.85,30.32h0l0,0L25.19,14.38a.93.93,0,0,0-1.31,1.31L39.8,32.31l0,0h0l0,0,.05,0a1.42,1.42,0,0,0,2-2l0-.05Z"/><rect class="cls-1" x="13.74" y="4.88" width="14.55" height="10.78" transform="translate(-1.1 17.87) rotate(-45)"/><path class="cls-2" d="M30.55,9.64a.76.76,0,0,1-1.07,0L21.64,1.79a.76.76,0,0,1,0-1.07h0a.76.76,0,0,1,1.07,0l7.84,7.85a.76.76,0,0,1,0,1.07Z"/><path d="M20.13,20.06a.76.76,0,0,1-1.07,0l-7.84-7.84a.76.76,0,0,1,0-1.07h0a.76.76,0,0,1,1.07,0L20.13,19a.76.76,0,0,1,0,1.07Z"/><rect class="cls-1" x="0.5" y="29.69" width="23.74" height="7.1"/><path class="cls-1" d="M21.91,29.69s0,0,0,0a3.08,3.08,0,0,0-3.08-3.08H5.91a3.08,3.08,0,0,0-3.08,3.08s0,0,0,0Z"/></g></g></svg>