<svg width="20" height="16" viewBox="0 0 20 16" version="1.1" xmlns="http://www.w3.org/2000/svg" xmlns:xlink="http://www.w3.org/1999/xlink">
<title>Vector</title>
<desc>Created using Figma</desc>
<g id="Canvas" transform="translate(259 -1831)">
<g id="Vector">
<use xlink:href="#path0_fill" transform="translate(-259 1831)" fill="#333333"/>
</g>
</g>
<defs>
<path id="path0_fill" d="M 18.5881 1.81127C 18.2687 1.91912 17.952 2.0242 17.6326 2.13204C 18.0567 1.70619 18.2687 1.17249 18.4834 0.638783C 18.4834 0.530937 18.4834 0.425856 18.3761 0.31801C 18.2687 0.210163 18.164 0.210163 18.0567 0.31801C 17.4206 0.743865 16.6772 0.956792 15.9338 1.17248C 15.1904 0.425855 14.1276 6.75121e-07 13.0675 6.75121e-07C 10.8373 6.75121e-07 8.92646 1.81403 8.92646 4.159C 8.92646 4.37193 8.92646 4.47978 8.92646 4.69271C 6.06019 4.47978 3.51056 3.0916 1.70434 0.851711C 1.59696 0.743865 1.49233 0.743864 1.49233 0.743864C 1.38495 0.743864 1.28032 0.851711 1.28032 0.851711C 0.960931 1.49049 0.748919 2.23712 0.748919 2.98375C 0.748919 3.94331 1.06831 4.90287 1.70434 5.6495C 1.49233 5.54165 1.28032 5.54165 1.17294 5.43657C 1.06556 5.43657 0.960931 5.43657 0.853549 5.43657C 0.746167 5.43657 0.746166 5.54442 0.746166 5.6495C 0.746166 5.6495 0.746166 5.6495 0.746166 5.75735C 0.746166 7.2506 1.59696 8.63602 2.76439 9.27757C 2.65701 9.27757 2.55238 9.27757 2.445 9.27757C 2.33762 9.27757 2.23299 9.27757 2.12561 9.38542C 2.01823 9.49326 2.01823 9.59834 2.01823 9.70619C 2.44225 11.0916 3.61243 12.159 5.09926 12.4798C 3.93183 13.2264 2.54963 13.6523 1.17019 13.6523C 0.850795 13.6523 0.534156 13.6523 0.319393 13.6523C 0.212011 13.6523 1.34442e-06 13.7601 1.34442e-06 13.8652C 1.34442e-06 13.973 -1.34574e-06 14.186 0.10738 14.186C 1.9136 15.3585 4.03645 16 6.16206 16C 10.4105 16 12.9602 13.973 14.447 12.3747C 16.2532 10.2427 17.3132 7.57414 17.3132 4.80055C 17.3132 4.69271 17.3132 4.58763 17.3132 4.47978C 18.0567 3.94608 18.6927 3.30729 19.1195 2.56066C 19.2268 2.45282 19.2268 2.23989 19.1195 2.13481C 18.9047 1.81127 18.8001 1.81127 18.5881 1.81127Z"/>
</defs>
</svg>
