<svg width="28" height="16" viewBox="0 0 28 16" version="1.1" xmlns="http://www.w3.org/2000/svg" xmlns:xlink="http://www.w3.org/1999/xlink">
<title>Vector</title>
<desc>Created using Figma</desc>
<g id="Canvas" transform="translate(355 -1831)">
<g id="Vector">
<use xlink:href="#path0_fill" transform="translate(-355 1831)" fill="#333333"/>
</g>
</g>
<defs>
<path id="path0_fill" d="M 23.7011 10.3433C 24.6111 11.2542 25.5251 12.0152 26.4352 13.0799C 26.7385 13.5373 27.1955 13.9908 27.3452 14.4482C 27.6486 15.2093 27.3452 15.9703 26.7385 15.9703L 22.7871 15.9703C 21.7234 16.1241 20.9631 15.6667 20.2027 14.9056C 19.596 14.2984 19.139 13.6872 18.5323 13.0799C 18.3787 12.7763 18.0753 12.6225 17.772 12.4726C 17.1653 12.169 16.7083 12.169 16.405 12.7763C 16.1016 13.3835 15.948 13.9947 15.948 14.602C 15.948 15.5129 15.6446 15.8205 14.7306 15.8205C 12.7569 15.9743 10.7792 15.6667 8.95518 14.602C 7.43449 13.6911 6.2211 12.4726 5.15741 10.9505C 3.03003 8.21388 1.50934 5.01981 0.142303 1.82574C -0.161046 1.06469 -0.0113391 0.761055 0.902647 0.761055C 2.26969 0.761055 3.48702 0.761055 4.85406 0.761055C 5.46076 0.761055 5.7641 1.06469 5.91775 1.52211C 6.67809 3.19407 7.43843 4.86997 8.65183 6.38814C 8.95518 6.84556 9.25853 7.14919 9.71552 7.45282C 10.1725 7.75646 10.4759 7.60661 10.7792 7.14919C 10.9329 6.84555 10.9329 6.54192 11.0826 6.0845C 11.2362 4.86602 11.2362 3.65149 11.0826 2.43301C 10.9289 1.67196 10.4759 1.21453 9.86523 1.06469C 9.40823 1.06469 9.56188 0.910901 9.71158 0.607267C 10.0149 0.303634 10.3183 -4.81359e-07 10.9289 -4.81359e-07L 15.487 -4.81359e-07C 16.2474 0.153788 16.3971 0.457422 16.3971 1.21848L 16.3971 6.23829C 16.3971 6.54192 16.5507 7.30298 17.0038 7.45677C 17.4608 7.61056 17.6105 7.30298 17.9138 6.99935C 18.9775 5.78087 19.7378 4.41254 20.4982 3.04422C 20.8015 2.43695 21.1049 1.82575 21.2585 1.06863C 21.4122 0.611211 21.7155 0.307576 22.3222 0.307576L 26.7306 0.307576C 26.8843 0.307576 27.034 0.307576 27.1876 0.307576C 27.948 0.461364 28.0977 0.764999 27.948 1.52605C 27.6446 2.59074 26.8843 3.65543 26.2776 4.56633C 25.5172 5.63102 24.7569 6.54192 23.9966 7.60661C 22.791 9.12478 22.791 9.5822 23.7011 10.3433Z"/>
</defs>
</svg>
