<svg width="23" height="16" viewBox="0 0 23 16" version="1.1" xmlns="http://www.w3.org/2000/svg" xmlns:xlink="http://www.w3.org/1999/xlink">
<title>Vector</title>
<desc>Created using Figma</desc>
<g id="Canvas" transform="translate(304 -1831)">
<g id="Vector">
<use xlink:href="#path0_fill" transform="translate(-304 1831)" fill="#333333"/>
</g>
</g>
<defs>
<path id="path0_fill" d="M 21.5306 1.38477C 20.6643 0.375586 19.1789 3.98678e-07 16.3332 3.98678e-07L 5.93847 3.98678e-07C 2.96763 3.98678e-07 1.48221 0.378853 0.741107 1.51215C 7.95503e-07 2.52133 1.56653e-06 4.03021 1.56653e-06 6.04858L 1.56653e-06 9.95468C 1.56653e-06 13.9849 0.99135 16 6.06359 16L 16.4583 16C 18.9319 16 20.2954 15.6211 21.1616 14.7393C 22.0278 13.8575 22.4 12.3454 22.4 9.95142L 22.4 6.04532C 22.3968 3.90284 22.3968 2.39069 21.5306 1.38477ZM 14.3537 8.56338L 9.65042 11.0814C 9.52529 11.0814 9.40338 11.2088 9.27826 11.2088C 9.15314 11.2088 9.03122 11.2088 8.9061 11.0814C 8.65907 10.9541 8.53395 10.7026 8.53395 10.4511L 8.53395 5.41498C 8.53395 5.1635 8.65907 4.91202 8.9061 4.78465C 9.15314 4.65728 9.40017 4.65728 9.64721 4.78465L 14.3505 7.30272C 14.5975 7.43009 14.7227 7.68157 14.7227 7.93305C 14.7259 8.18779 14.6007 8.43927 14.3537 8.56338Z"/>
</defs>
</svg>
